<mxfile host="app.diagrams.net" modified="2023-10-05T14:24:35.302Z" agent="Mozilla/5.0 (Windows NT 10.0; Win64; x64) AppleWebKit/537.36 (KHTML, like Gecko) Chrome/112.0.0.0 YaBrowser/23.5.3.904 Yowser/2.5 Safari/537.36" etag="5hGJmaH5-tw2kYGBouu1" version="22.0.2" type="device">
  <diagram id="vkmmHVHtylZkI-B8PHDs" name="Страница 1">
    <mxGraphModel dx="3080" dy="1687" grid="1" gridSize="10" guides="1" tooltips="1" connect="1" arrows="1" fold="1" page="1" pageScale="1" pageWidth="1654" pageHeight="1169" math="0" shadow="0">
      <root>
        <mxCell id="0" />
        <mxCell id="1" parent="0" />
        <mxCell id="cNPebkuIrYHYyCrAwYhM-41" value="" style="rounded=0;whiteSpace=wrap;html=1;dashed=1;dashPattern=8 8;" vertex="1" parent="1">
          <mxGeometry x="1830" y="2680" width="605" height="227" as="geometry" />
        </mxCell>
        <mxCell id="xEE5lDKMHfWcPHZwCiiv-7" style="rounded=0;orthogonalLoop=1;jettySize=auto;html=1;exitX=0.5;exitY=1;exitDx=0;exitDy=0;entryX=0.25;entryY=0;entryDx=0;entryDy=0;fontSize=50;" parent="1" source="xEE5lDKMHfWcPHZwCiiv-1" target="xEE5lDKMHfWcPHZwCiiv-3" edge="1">
          <mxGeometry relative="1" as="geometry" />
        </mxCell>
        <mxCell id="xEE5lDKMHfWcPHZwCiiv-1" value="" style="rounded=0;whiteSpace=wrap;html=1;" parent="1" vertex="1">
          <mxGeometry x="240" y="1040" width="80" height="40" as="geometry" />
        </mxCell>
        <mxCell id="xEE5lDKMHfWcPHZwCiiv-2" value="" style="rounded=0;whiteSpace=wrap;html=1;" parent="1" vertex="1">
          <mxGeometry x="480" y="1040" width="80" height="40" as="geometry" />
        </mxCell>
        <mxCell id="xEE5lDKMHfWcPHZwCiiv-12" style="edgeStyle=none;rounded=0;orthogonalLoop=1;jettySize=auto;html=1;exitX=0;exitY=0.5;exitDx=0;exitDy=0;entryX=1;entryY=0;entryDx=0;entryDy=0;fontSize=20;" parent="1" target="xEE5lDKMHfWcPHZwCiiv-11" edge="1">
          <mxGeometry relative="1" as="geometry">
            <mxPoint x="332" y="1235" as="sourcePoint" />
          </mxGeometry>
        </mxCell>
        <mxCell id="xEE5lDKMHfWcPHZwCiiv-16" style="edgeStyle=none;rounded=0;orthogonalLoop=1;jettySize=auto;html=1;exitX=1;exitY=0.5;exitDx=0;exitDy=0;entryX=0;entryY=0;entryDx=0;entryDy=0;fontSize=20;" parent="1" source="xEE5lDKMHfWcPHZwCiiv-3" target="xEE5lDKMHfWcPHZwCiiv-15" edge="1">
          <mxGeometry relative="1" as="geometry" />
        </mxCell>
        <mxCell id="xEE5lDKMHfWcPHZwCiiv-21" style="edgeStyle=none;rounded=0;orthogonalLoop=1;jettySize=auto;html=1;exitX=0.75;exitY=0;exitDx=0;exitDy=0;entryX=0.5;entryY=1;entryDx=0;entryDy=0;fontSize=20;" parent="1" source="xEE5lDKMHfWcPHZwCiiv-3" target="xEE5lDKMHfWcPHZwCiiv-2" edge="1">
          <mxGeometry relative="1" as="geometry" />
        </mxCell>
        <mxCell id="3V2oRIPTURKNnn8jk43x-17" style="rounded=0;orthogonalLoop=1;jettySize=auto;html=1;exitX=0.25;exitY=1;exitDx=0;exitDy=0;entryX=0;entryY=0.5;entryDx=0;entryDy=0;edgeStyle=orthogonalEdgeStyle;curved=1;" parent="1" source="xEE5lDKMHfWcPHZwCiiv-3" target="3V2oRIPTURKNnn8jk43x-16" edge="1">
          <mxGeometry relative="1" as="geometry">
            <Array as="points">
              <mxPoint x="360" y="1270" />
              <mxPoint x="360" y="1450" />
              <mxPoint x="220" y="1450" />
              <mxPoint x="220" y="1550" />
            </Array>
          </mxGeometry>
        </mxCell>
        <mxCell id="xEE5lDKMHfWcPHZwCiiv-3" value="&lt;font style=&quot;font-size: 20px;&quot;&gt;Выбор действия&lt;/font&gt;" style="rounded=0;whiteSpace=wrap;html=1;" parent="1" vertex="1">
          <mxGeometry x="332" y="1190" width="150" height="80" as="geometry" />
        </mxCell>
        <mxCell id="xEE5lDKMHfWcPHZwCiiv-4" value="Исходное состояние" style="text;html=1;align=center;verticalAlign=middle;resizable=0;points=[];autosize=1;strokeColor=none;fillColor=none;fontSize=20;" parent="1" vertex="1">
          <mxGeometry x="165" y="995" width="210" height="30" as="geometry" />
        </mxCell>
        <mxCell id="xEE5lDKMHfWcPHZwCiiv-5" value="Состояние завершения" style="text;html=1;align=center;verticalAlign=middle;resizable=0;points=[];autosize=1;strokeColor=none;fillColor=none;fontSize=20;" parent="1" vertex="1">
          <mxGeometry x="400" y="995" width="230" height="30" as="geometry" />
        </mxCell>
        <mxCell id="xEE5lDKMHfWcPHZwCiiv-6" value="&lt;font style=&quot;font-size: 50px;&quot;&gt;STD&lt;/font&gt;" style="text;html=1;align=center;verticalAlign=middle;resizable=0;points=[];autosize=1;strokeColor=none;fillColor=none;fontSize=20;" parent="1" vertex="1">
          <mxGeometry x="90" y="915" width="120" height="40" as="geometry" />
        </mxCell>
        <mxCell id="xEE5lDKMHfWcPHZwCiiv-9" value="&lt;span style=&quot;font-size: 20px;&quot;&gt;Вседа&lt;br&gt;Инициализация&lt;br&gt;&lt;/span&gt;" style="text;html=1;align=center;verticalAlign=middle;resizable=0;points=[];autosize=1;strokeColor=none;fillColor=none;fontSize=10;" parent="1" vertex="1">
          <mxGeometry x="160" y="1100" width="160" height="40" as="geometry" />
        </mxCell>
        <mxCell id="xEE5lDKMHfWcPHZwCiiv-10" value="" style="endArrow=none;html=1;rounded=0;fontSize=20;" parent="1" edge="1">
          <mxGeometry width="50" height="50" relative="1" as="geometry">
            <mxPoint x="174" y="1122" as="sourcePoint" />
            <mxPoint x="304" y="1122" as="targetPoint" />
          </mxGeometry>
        </mxCell>
        <mxCell id="xEE5lDKMHfWcPHZwCiiv-25" style="edgeStyle=orthogonalEdgeStyle;rounded=0;orthogonalLoop=1;jettySize=auto;html=1;exitX=0.5;exitY=1;exitDx=0;exitDy=0;entryX=0;entryY=1;entryDx=0;entryDy=0;fontSize=20;curved=1;" parent="1" source="xEE5lDKMHfWcPHZwCiiv-11" target="xEE5lDKMHfWcPHZwCiiv-3" edge="1">
          <mxGeometry relative="1" as="geometry">
            <Array as="points">
              <mxPoint x="95" y="1370" />
              <mxPoint x="210" y="1370" />
              <mxPoint x="210" y="1270" />
            </Array>
          </mxGeometry>
        </mxCell>
        <mxCell id="xEE5lDKMHfWcPHZwCiiv-11" value="&lt;font style=&quot;font-size: 20px;&quot;&gt;Расчет топлива&lt;/font&gt;" style="rounded=0;whiteSpace=wrap;html=1;" parent="1" vertex="1">
          <mxGeometry x="20" y="1265" width="150" height="80" as="geometry" />
        </mxCell>
        <mxCell id="xEE5lDKMHfWcPHZwCiiv-13" value="&lt;span style=&quot;font-size: 20px;&quot;&gt;&quot;Действие&quot; = &lt;br&gt;расчет топлива&lt;br&gt;Ввод данных&lt;br&gt;&lt;/span&gt;" style="text;html=1;align=center;verticalAlign=middle;resizable=0;points=[];autosize=1;strokeColor=none;fillColor=none;fontSize=10;" parent="1" vertex="1">
          <mxGeometry x="70" y="1190" width="160" height="50" as="geometry" />
        </mxCell>
        <mxCell id="xEE5lDKMHfWcPHZwCiiv-14" value="" style="endArrow=none;html=1;rounded=0;fontSize=20;" parent="1" edge="1">
          <mxGeometry width="50" height="50" relative="1" as="geometry">
            <mxPoint x="84" y="1228" as="sourcePoint" />
            <mxPoint x="214" y="1228" as="targetPoint" />
          </mxGeometry>
        </mxCell>
        <mxCell id="xEE5lDKMHfWcPHZwCiiv-28" style="edgeStyle=orthogonalEdgeStyle;curved=1;rounded=0;orthogonalLoop=1;jettySize=auto;html=1;exitX=0.5;exitY=1;exitDx=0;exitDy=0;entryX=1;entryY=1;entryDx=0;entryDy=0;fontSize=20;" parent="1" source="xEE5lDKMHfWcPHZwCiiv-15" target="xEE5lDKMHfWcPHZwCiiv-3" edge="1">
          <mxGeometry relative="1" as="geometry">
            <Array as="points">
              <mxPoint x="715" y="1370" />
              <mxPoint x="570" y="1370" />
              <mxPoint x="570" y="1270" />
            </Array>
          </mxGeometry>
        </mxCell>
        <mxCell id="xEE5lDKMHfWcPHZwCiiv-15" value="&lt;font style=&quot;font-size: 20px;&quot;&gt;Определение советов&lt;/font&gt;" style="rounded=0;whiteSpace=wrap;html=1;" parent="1" vertex="1">
          <mxGeometry x="640" y="1270" width="150" height="80" as="geometry" />
        </mxCell>
        <mxCell id="xEE5lDKMHfWcPHZwCiiv-17" value="&lt;span style=&quot;font-size: 20px;&quot;&gt;&quot;Действие&quot; = &lt;br&gt;советы&lt;br&gt;Опрос пользователя&lt;br&gt;&lt;/span&gt;" style="text;html=1;align=center;verticalAlign=middle;resizable=0;points=[];autosize=1;strokeColor=none;fillColor=none;fontSize=10;" parent="1" vertex="1">
          <mxGeometry x="590" y="1195" width="210" height="50" as="geometry" />
        </mxCell>
        <mxCell id="xEE5lDKMHfWcPHZwCiiv-18" value="" style="endArrow=none;html=1;rounded=0;fontSize=20;" parent="1" edge="1">
          <mxGeometry width="50" height="50" relative="1" as="geometry">
            <mxPoint x="629" y="1233" as="sourcePoint" />
            <mxPoint x="759" y="1233" as="targetPoint" />
          </mxGeometry>
        </mxCell>
        <mxCell id="xEE5lDKMHfWcPHZwCiiv-22" value="Закрытие программы&lt;br&gt;Завершение" style="text;html=1;align=center;verticalAlign=middle;resizable=0;points=[];autosize=1;strokeColor=none;fillColor=none;fontSize=20;" parent="1" vertex="1">
          <mxGeometry x="520" y="1090" width="210" height="50" as="geometry" />
        </mxCell>
        <mxCell id="xEE5lDKMHfWcPHZwCiiv-24" value="" style="endArrow=none;html=1;rounded=0;fontSize=20;" parent="1" edge="1">
          <mxGeometry width="50" height="50" relative="1" as="geometry">
            <mxPoint x="544" y="1118" as="sourcePoint" />
            <mxPoint x="710" y="1118" as="targetPoint" />
          </mxGeometry>
        </mxCell>
        <mxCell id="xEE5lDKMHfWcPHZwCiiv-26" value="&lt;span style=&quot;font-size: 20px;&quot;&gt;Всегда&lt;br&gt;Вывод результата&lt;br&gt;&lt;/span&gt;" style="text;html=1;align=center;verticalAlign=middle;resizable=0;points=[];autosize=1;strokeColor=none;fillColor=none;fontSize=10;" parent="1" vertex="1">
          <mxGeometry x="10" y="1380" width="180" height="40" as="geometry" />
        </mxCell>
        <mxCell id="xEE5lDKMHfWcPHZwCiiv-27" value="" style="endArrow=none;html=1;rounded=0;fontSize=20;" parent="1" edge="1">
          <mxGeometry width="50" height="50" relative="1" as="geometry">
            <mxPoint x="34" y="1403" as="sourcePoint" />
            <mxPoint x="164" y="1403" as="targetPoint" />
          </mxGeometry>
        </mxCell>
        <mxCell id="xEE5lDKMHfWcPHZwCiiv-29" value="&lt;span style=&quot;font-size: 20px;&quot;&gt;Всегда&lt;br&gt;Вывод советов&lt;br&gt;&lt;/span&gt;" style="text;html=1;align=center;verticalAlign=middle;resizable=0;points=[];autosize=1;strokeColor=none;fillColor=none;fontSize=10;" parent="1" vertex="1">
          <mxGeometry x="600" y="1380" width="150" height="40" as="geometry" />
        </mxCell>
        <mxCell id="xEE5lDKMHfWcPHZwCiiv-30" value="" style="endArrow=none;html=1;rounded=0;fontSize=20;" parent="1" edge="1">
          <mxGeometry width="50" height="50" relative="1" as="geometry">
            <mxPoint x="609" y="1403" as="sourcePoint" />
            <mxPoint x="739" y="1403" as="targetPoint" />
          </mxGeometry>
        </mxCell>
        <mxCell id="xEE5lDKMHfWcPHZwCiiv-31" value="&lt;font style=&quot;font-size: 50px;&quot;&gt;IDEF0&lt;/font&gt;" style="text;html=1;align=center;verticalAlign=middle;resizable=0;points=[];autosize=1;strokeColor=none;fillColor=none;fontSize=20;" parent="1" vertex="1">
          <mxGeometry x="1380" y="660" width="160" height="40" as="geometry" />
        </mxCell>
        <mxCell id="xEE5lDKMHfWcPHZwCiiv-34" style="rounded=0;orthogonalLoop=1;jettySize=auto;html=1;exitX=0.006;exitY=0.1;exitDx=0;exitDy=0;fontSize=50;startArrow=classic;startFill=1;endArrow=none;endFill=0;edgeStyle=orthogonalEdgeStyle;exitPerimeter=0;" parent="1" source="xEE5lDKMHfWcPHZwCiiv-32" edge="1">
          <mxGeometry relative="1" as="geometry">
            <mxPoint x="1830" y="1180" as="targetPoint" />
            <Array as="points">
              <mxPoint x="1840" y="1180" />
            </Array>
          </mxGeometry>
        </mxCell>
        <mxCell id="xEE5lDKMHfWcPHZwCiiv-35" style="edgeStyle=none;rounded=0;orthogonalLoop=1;jettySize=auto;html=1;fontSize=50;startArrow=classic;startFill=1;endArrow=none;endFill=0;" parent="1" edge="1">
          <mxGeometry relative="1" as="geometry">
            <mxPoint x="1809" y="1340" as="targetPoint" />
            <mxPoint x="1930" y="1340" as="sourcePoint" />
          </mxGeometry>
        </mxCell>
        <mxCell id="xEE5lDKMHfWcPHZwCiiv-39" style="edgeStyle=none;rounded=0;orthogonalLoop=1;jettySize=auto;html=1;exitX=0.25;exitY=0;exitDx=0;exitDy=0;fontSize=20;startArrow=classic;startFill=1;endArrow=none;endFill=0;" parent="1" source="xEE5lDKMHfWcPHZwCiiv-32" edge="1">
          <mxGeometry relative="1" as="geometry">
            <mxPoint x="1989" y="1040" as="targetPoint" />
          </mxGeometry>
        </mxCell>
        <mxCell id="xEE5lDKMHfWcPHZwCiiv-41" style="edgeStyle=none;rounded=0;orthogonalLoop=1;jettySize=auto;html=1;exitX=0.75;exitY=0;exitDx=0;exitDy=0;fontSize=20;startArrow=classic;startFill=1;endArrow=none;endFill=0;" parent="1" edge="1">
          <mxGeometry relative="1" as="geometry">
            <mxPoint x="2150" y="1050" as="targetPoint" />
            <mxPoint x="2150" y="1160" as="sourcePoint" />
          </mxGeometry>
        </mxCell>
        <mxCell id="xEE5lDKMHfWcPHZwCiiv-43" style="edgeStyle=none;rounded=0;orthogonalLoop=1;jettySize=auto;html=1;exitX=1;exitY=0.25;exitDx=0;exitDy=0;fontSize=20;startArrow=none;startFill=0;endArrow=classic;endFill=1;" parent="1" source="xEE5lDKMHfWcPHZwCiiv-32" edge="1">
          <mxGeometry relative="1" as="geometry">
            <mxPoint x="2329" y="1210" as="targetPoint" />
          </mxGeometry>
        </mxCell>
        <mxCell id="xEE5lDKMHfWcPHZwCiiv-45" style="edgeStyle=none;rounded=0;orthogonalLoop=1;jettySize=auto;html=1;exitX=1;exitY=0.75;exitDx=0;exitDy=0;fontSize=20;startArrow=none;startFill=0;endArrow=classic;endFill=1;" parent="1" source="xEE5lDKMHfWcPHZwCiiv-32" edge="1">
          <mxGeometry relative="1" as="geometry">
            <mxPoint x="2329" y="1310.2352941176473" as="targetPoint" />
          </mxGeometry>
        </mxCell>
        <mxCell id="xriNwPtEzMUyClS9Vuju-11" style="edgeStyle=orthogonalEdgeStyle;rounded=0;orthogonalLoop=1;jettySize=auto;html=1;exitX=0.25;exitY=1;exitDx=0;exitDy=0;fontSize=16;startArrow=classic;startFill=1;endArrow=none;endFill=0;" parent="1" source="xEE5lDKMHfWcPHZwCiiv-32" edge="1">
          <mxGeometry relative="1" as="geometry">
            <mxPoint x="1988.7058823529414" y="1479.9999999999995" as="targetPoint" />
          </mxGeometry>
        </mxCell>
        <mxCell id="xEE5lDKMHfWcPHZwCiiv-32" value="&lt;font style=&quot;font-size: 20px;&quot;&gt;Программа - помощник&lt;/font&gt;" style="rounded=0;whiteSpace=wrap;html=1;fontSize=50;" parent="1" vertex="1">
          <mxGeometry x="1929" y="1160" width="240" height="200" as="geometry" />
        </mxCell>
        <mxCell id="xEE5lDKMHfWcPHZwCiiv-37" value="&lt;font style=&quot;&quot;&gt;&lt;font style=&quot;font-size: 11px;&quot;&gt;Расчет топлива\&lt;br&gt;Советы по настройке\&lt;br&gt;Турниры&lt;/font&gt;&lt;br&gt;&lt;/font&gt;" style="text;html=1;align=center;verticalAlign=middle;resizable=0;points=[];autosize=1;strokeColor=none;fillColor=none;fontSize=20;" parent="1" vertex="1">
          <mxGeometry x="1665" y="1290" width="140" height="90" as="geometry" />
        </mxCell>
        <mxCell id="xEE5lDKMHfWcPHZwCiiv-38" value="А.0" style="text;html=1;align=center;verticalAlign=middle;resizable=0;points=[];autosize=1;strokeColor=none;fillColor=none;fontSize=20;" parent="1" vertex="1">
          <mxGeometry x="1929" y="1330" width="50" height="30" as="geometry" />
        </mxCell>
        <mxCell id="xEE5lDKMHfWcPHZwCiiv-40" value="Алгоритм&lt;br&gt;расчета" style="text;html=1;align=center;verticalAlign=middle;resizable=0;points=[];autosize=1;strokeColor=none;fillColor=none;fontSize=20;" parent="1" vertex="1">
          <mxGeometry x="1890" y="1050" width="100" height="50" as="geometry" />
        </mxCell>
        <mxCell id="xEE5lDKMHfWcPHZwCiiv-42" value="Алгоритм определения&lt;br&gt;советов" style="text;html=1;align=center;verticalAlign=middle;resizable=0;points=[];autosize=1;strokeColor=none;fillColor=none;fontSize=20;" parent="1" vertex="1">
          <mxGeometry x="2145" y="1040" width="240" height="60" as="geometry" />
        </mxCell>
        <mxCell id="xEE5lDKMHfWcPHZwCiiv-44" value="Необходимое топливо" style="text;html=1;align=center;verticalAlign=middle;resizable=0;points=[];autosize=1;strokeColor=none;fillColor=none;fontSize=20;" parent="1" vertex="1">
          <mxGeometry x="2169" y="1170" width="220" height="30" as="geometry" />
        </mxCell>
        <mxCell id="xEE5lDKMHfWcPHZwCiiv-46" value="Советы по настройке" style="text;html=1;align=center;verticalAlign=middle;resizable=0;points=[];autosize=1;strokeColor=none;fillColor=none;fontSize=20;" parent="1" vertex="1">
          <mxGeometry x="2169" y="1275" width="210" height="30" as="geometry" />
        </mxCell>
        <mxCell id="xEE5lDKMHfWcPHZwCiiv-53" style="edgeStyle=orthogonalEdgeStyle;rounded=0;orthogonalLoop=1;jettySize=auto;html=1;exitX=1;exitY=0.5;exitDx=0;exitDy=0;entryX=0.229;entryY=-0.022;entryDx=0;entryDy=0;fontSize=20;startArrow=none;startFill=0;endArrow=classic;endFill=1;entryPerimeter=0;" parent="1" source="xEE5lDKMHfWcPHZwCiiv-47" target="xEE5lDKMHfWcPHZwCiiv-51" edge="1">
          <mxGeometry relative="1" as="geometry">
            <Array as="points">
              <mxPoint x="1920" y="1885" />
              <mxPoint x="1920" y="1720" />
              <mxPoint x="2067" y="1720" />
            </Array>
          </mxGeometry>
        </mxCell>
        <mxCell id="xEE5lDKMHfWcPHZwCiiv-47" value="Выбор действия" style="rounded=0;whiteSpace=wrap;html=1;fontSize=20;" parent="1" vertex="1">
          <mxGeometry x="1740" y="1830" width="160" height="110" as="geometry" />
        </mxCell>
        <mxCell id="xEE5lDKMHfWcPHZwCiiv-48" value="А.0.0" style="text;html=1;align=center;verticalAlign=middle;resizable=0;points=[];autosize=1;strokeColor=none;fillColor=none;fontSize=20;" parent="1" vertex="1">
          <mxGeometry x="1740" y="1910" width="60" height="30" as="geometry" />
        </mxCell>
        <mxCell id="xEE5lDKMHfWcPHZwCiiv-49" value="" style="endArrow=classic;html=1;rounded=0;fontSize=20;entryX=0;entryY=0.5;entryDx=0;entryDy=0;" parent="1" target="xEE5lDKMHfWcPHZwCiiv-47" edge="1">
          <mxGeometry width="50" height="50" relative="1" as="geometry">
            <mxPoint x="1620" y="1885" as="sourcePoint" />
            <mxPoint x="1660" y="1860" as="targetPoint" />
          </mxGeometry>
        </mxCell>
        <mxCell id="xEE5lDKMHfWcPHZwCiiv-50" value="&lt;span style=&quot;font-size: 16px;&quot;&gt;Расчет топлива\&lt;/span&gt;&lt;br style=&quot;font-size: 16px;&quot;&gt;&lt;span style=&quot;font-size: 16px;&quot;&gt;Советы по настройке\&lt;br&gt;турниры&lt;br&gt;&lt;/span&gt;" style="text;html=1;align=center;verticalAlign=middle;resizable=0;points=[];autosize=1;strokeColor=none;fillColor=none;fontSize=20;" parent="1" vertex="1">
          <mxGeometry x="1560" y="1805" width="190" height="90" as="geometry" />
        </mxCell>
        <mxCell id="xEE5lDKMHfWcPHZwCiiv-62" style="edgeStyle=orthogonalEdgeStyle;rounded=0;orthogonalLoop=1;jettySize=auto;html=1;exitX=1;exitY=0.5;exitDx=0;exitDy=0;fontSize=20;startArrow=none;startFill=0;endArrow=classic;endFill=1;" parent="1" source="xEE5lDKMHfWcPHZwCiiv-51" edge="1">
          <mxGeometry relative="1" as="geometry">
            <mxPoint x="2800" y="1890" as="targetPoint" />
            <Array as="points">
              <mxPoint x="2380" y="1835" />
              <mxPoint x="2380" y="1890" />
            </Array>
          </mxGeometry>
        </mxCell>
        <mxCell id="xriNwPtEzMUyClS9Vuju-29" style="edgeStyle=orthogonalEdgeStyle;rounded=0;orthogonalLoop=1;jettySize=auto;html=1;exitX=0.5;exitY=1;exitDx=0;exitDy=0;fontSize=16;startArrow=classic;startFill=1;endArrow=none;endFill=0;" parent="1" source="xEE5lDKMHfWcPHZwCiiv-51" edge="1">
          <mxGeometry relative="1" as="geometry">
            <mxPoint x="2110" y="2380" as="targetPoint" />
            <Array as="points">
              <mxPoint x="2110" y="2190" />
            </Array>
          </mxGeometry>
        </mxCell>
        <mxCell id="xEE5lDKMHfWcPHZwCiiv-51" value="Расчет топлива" style="rounded=0;whiteSpace=wrap;html=1;fontSize=20;" parent="1" vertex="1">
          <mxGeometry x="2030" y="1780" width="160" height="110" as="geometry" />
        </mxCell>
        <mxCell id="xEE5lDKMHfWcPHZwCiiv-54" style="edgeStyle=orthogonalEdgeStyle;rounded=0;orthogonalLoop=1;jettySize=auto;html=1;exitX=0.25;exitY=0;exitDx=0;exitDy=0;fontSize=20;startArrow=classic;startFill=1;endArrow=oval;endFill=1;" parent="1" edge="1" source="xEE5lDKMHfWcPHZwCiiv-52">
          <mxGeometry relative="1" as="geometry">
            <mxPoint x="1920" y="1885" as="targetPoint" />
            <mxPoint x="2220" y="2055" as="sourcePoint" />
            <Array as="points">
              <mxPoint x="2260" y="1940" />
              <mxPoint x="1960" y="1940" />
              <mxPoint x="1960" y="1885" />
            </Array>
          </mxGeometry>
        </mxCell>
        <mxCell id="xEE5lDKMHfWcPHZwCiiv-63" style="edgeStyle=orthogonalEdgeStyle;rounded=0;orthogonalLoop=1;jettySize=auto;html=1;exitX=1;exitY=0.5;exitDx=0;exitDy=0;fontSize=20;startArrow=none;startFill=0;endArrow=classic;endFill=1;" parent="1" source="xEE5lDKMHfWcPHZwCiiv-52" edge="1">
          <mxGeometry relative="1" as="geometry">
            <mxPoint x="2805" y="2025" as="targetPoint" />
          </mxGeometry>
        </mxCell>
        <mxCell id="xriNwPtEzMUyClS9Vuju-31" style="edgeStyle=orthogonalEdgeStyle;rounded=0;orthogonalLoop=1;jettySize=auto;html=1;exitX=0.25;exitY=1;exitDx=0;exitDy=0;fontSize=16;startArrow=classic;startFill=1;endArrow=oval;endFill=1;" parent="1" source="xEE5lDKMHfWcPHZwCiiv-52" edge="1">
          <mxGeometry relative="1" as="geometry">
            <mxPoint x="2050" y="2130" as="targetPoint" />
            <Array as="points">
              <mxPoint x="2260" y="2130" />
            </Array>
          </mxGeometry>
        </mxCell>
        <mxCell id="xriNwPtEzMUyClS9Vuju-32" style="edgeStyle=orthogonalEdgeStyle;rounded=0;orthogonalLoop=1;jettySize=auto;html=1;exitX=0.75;exitY=1;exitDx=0;exitDy=0;fontSize=16;startArrow=classic;startFill=1;endArrow=oval;endFill=1;" parent="1" source="xEE5lDKMHfWcPHZwCiiv-52" edge="1">
          <mxGeometry relative="1" as="geometry">
            <mxPoint x="2110" y="2150" as="targetPoint" />
            <Array as="points">
              <mxPoint x="2340" y="2150" />
            </Array>
          </mxGeometry>
        </mxCell>
        <mxCell id="xEE5lDKMHfWcPHZwCiiv-52" value="Определение советов" style="rounded=0;whiteSpace=wrap;html=1;fontSize=20;" parent="1" vertex="1">
          <mxGeometry x="2220" y="1970" width="160" height="110" as="geometry" />
        </mxCell>
        <mxCell id="xEE5lDKMHfWcPHZwCiiv-56" value="А.0.1" style="text;html=1;align=center;verticalAlign=middle;resizable=0;points=[];autosize=1;strokeColor=none;fillColor=none;fontSize=20;" parent="1" vertex="1">
          <mxGeometry x="2030" y="1860" width="60" height="30" as="geometry" />
        </mxCell>
        <mxCell id="xEE5lDKMHfWcPHZwCiiv-57" value="А.0.2" style="text;html=1;align=center;verticalAlign=middle;resizable=0;points=[];autosize=1;strokeColor=none;fillColor=none;fontSize=20;" parent="1" vertex="1">
          <mxGeometry x="2220" y="2050" width="60" height="30" as="geometry" />
        </mxCell>
        <mxCell id="xEE5lDKMHfWcPHZwCiiv-58" style="edgeStyle=none;rounded=0;orthogonalLoop=1;jettySize=auto;html=1;exitX=0.5;exitY=0;exitDx=0;exitDy=0;fontSize=20;startArrow=classic;startFill=1;endArrow=none;endFill=0;" parent="1" edge="1">
          <mxGeometry relative="1" as="geometry">
            <mxPoint x="2167.46" y="1650" as="targetPoint" />
            <mxPoint x="2167.46" y="1780" as="sourcePoint" />
          </mxGeometry>
        </mxCell>
        <mxCell id="xEE5lDKMHfWcPHZwCiiv-59" style="edgeStyle=none;rounded=0;orthogonalLoop=1;jettySize=auto;html=1;fontSize=20;startArrow=classic;startFill=1;endArrow=none;endFill=0;exitX=0.5;exitY=0;exitDx=0;exitDy=0;" parent="1" source="xEE5lDKMHfWcPHZwCiiv-52" edge="1">
          <mxGeometry relative="1" as="geometry">
            <mxPoint x="2300" y="1700" as="targetPoint" />
            <mxPoint x="2300" y="2070" as="sourcePoint" />
          </mxGeometry>
        </mxCell>
        <mxCell id="xEE5lDKMHfWcPHZwCiiv-60" value="Алгоритм&lt;br&gt;расчета" style="text;html=1;align=center;verticalAlign=middle;resizable=0;points=[];autosize=1;strokeColor=none;fillColor=none;fontSize=20;" parent="1" vertex="1">
          <mxGeometry x="2120" y="1600" width="100" height="50" as="geometry" />
        </mxCell>
        <mxCell id="xEE5lDKMHfWcPHZwCiiv-61" value="Алгоритм&lt;br&gt;определения&lt;br&gt;советов" style="text;html=1;align=center;verticalAlign=middle;resizable=0;points=[];autosize=1;strokeColor=none;fillColor=none;fontSize=20;" parent="1" vertex="1">
          <mxGeometry x="2225" y="1610" width="150" height="90" as="geometry" />
        </mxCell>
        <mxCell id="xEE5lDKMHfWcPHZwCiiv-64" value="Необходимое&lt;br&gt;топливо" style="text;html=1;align=center;verticalAlign=middle;resizable=0;points=[];autosize=1;strokeColor=none;fillColor=none;fontSize=20;" parent="1" vertex="1">
          <mxGeometry x="2665" y="1825" width="140" height="50" as="geometry" />
        </mxCell>
        <mxCell id="xEE5lDKMHfWcPHZwCiiv-65" value="Советы по&lt;br&gt;настройке" style="text;html=1;align=center;verticalAlign=middle;resizable=0;points=[];autosize=1;strokeColor=none;fillColor=none;fontSize=20;" parent="1" vertex="1">
          <mxGeometry x="2680" y="1966" width="110" height="50" as="geometry" />
        </mxCell>
        <mxCell id="xEE5lDKMHfWcPHZwCiiv-66" value="&lt;font style=&quot;font-size: 50px;&quot;&gt;DFD&lt;/font&gt;" style="text;html=1;align=center;verticalAlign=middle;resizable=0;points=[];autosize=1;strokeColor=none;fillColor=none;fontSize=20;" parent="1" vertex="1">
          <mxGeometry x="2860" y="915" width="120" height="40" as="geometry" />
        </mxCell>
        <mxCell id="xEE5lDKMHfWcPHZwCiiv-70" style="edgeStyle=orthogonalEdgeStyle;rounded=0;orthogonalLoop=1;jettySize=auto;html=1;exitX=0.25;exitY=1;exitDx=0;exitDy=0;entryX=0;entryY=1;entryDx=0;entryDy=0;fontSize=20;startArrow=none;startFill=0;endArrow=classic;endFill=1;curved=1;" parent="1" source="xEE5lDKMHfWcPHZwCiiv-68" target="xEE5lDKMHfWcPHZwCiiv-69" edge="1">
          <mxGeometry relative="1" as="geometry">
            <Array as="points">
              <mxPoint x="2770" y="1180" />
              <mxPoint x="2770" y="1474" />
            </Array>
          </mxGeometry>
        </mxCell>
        <mxCell id="xEE5lDKMHfWcPHZwCiiv-72" style="edgeStyle=orthogonalEdgeStyle;curved=1;rounded=0;orthogonalLoop=1;jettySize=auto;html=1;exitX=0.5;exitY=1;exitDx=0;exitDy=0;entryX=0;entryY=0.5;entryDx=0;entryDy=0;fontSize=20;startArrow=none;startFill=0;endArrow=classic;endFill=1;" parent="1" source="xEE5lDKMHfWcPHZwCiiv-68" target="xEE5lDKMHfWcPHZwCiiv-69" edge="1">
          <mxGeometry relative="1" as="geometry">
            <Array as="points">
              <mxPoint x="2910" y="1180" />
              <mxPoint x="2910" y="1423" />
            </Array>
          </mxGeometry>
        </mxCell>
        <mxCell id="xEE5lDKMHfWcPHZwCiiv-74" style="edgeStyle=orthogonalEdgeStyle;curved=1;rounded=0;orthogonalLoop=1;jettySize=auto;html=1;exitX=0.75;exitY=1;exitDx=0;exitDy=0;entryX=0;entryY=0;entryDx=0;entryDy=0;fontSize=20;startArrow=none;startFill=0;endArrow=classic;endFill=1;" parent="1" source="xEE5lDKMHfWcPHZwCiiv-68" target="xEE5lDKMHfWcPHZwCiiv-69" edge="1">
          <mxGeometry relative="1" as="geometry" />
        </mxCell>
        <mxCell id="xEE5lDKMHfWcPHZwCiiv-88" style="edgeStyle=orthogonalEdgeStyle;curved=1;rounded=0;orthogonalLoop=1;jettySize=auto;html=1;exitX=0.75;exitY=0;exitDx=0;exitDy=0;entryX=0;entryY=0.5;entryDx=0;entryDy=0;fontSize=20;startArrow=none;startFill=0;endArrow=classic;endFill=1;" parent="1" source="xEE5lDKMHfWcPHZwCiiv-68" target="xEE5lDKMHfWcPHZwCiiv-83" edge="1">
          <mxGeometry relative="1" as="geometry" />
        </mxCell>
        <mxCell id="xEE5lDKMHfWcPHZwCiiv-68" value="Пользователь" style="html=1;dashed=0;whitespace=wrap;fontSize=20;" parent="1" vertex="1">
          <mxGeometry x="2850" y="1080" width="200" height="100" as="geometry" />
        </mxCell>
        <mxCell id="xEE5lDKMHfWcPHZwCiiv-76" style="edgeStyle=orthogonalEdgeStyle;curved=1;rounded=0;orthogonalLoop=1;jettySize=auto;html=1;exitX=1;exitY=0;exitDx=0;exitDy=0;entryX=1;entryY=0.5;entryDx=0;entryDy=0;fontSize=20;startArrow=none;startFill=0;endArrow=classic;endFill=1;" parent="1" source="xEE5lDKMHfWcPHZwCiiv-69" target="xEE5lDKMHfWcPHZwCiiv-68" edge="1">
          <mxGeometry relative="1" as="geometry">
            <Array as="points">
              <mxPoint x="3320" y="1371" />
              <mxPoint x="3320" y="1130" />
            </Array>
          </mxGeometry>
        </mxCell>
        <mxCell id="xEE5lDKMHfWcPHZwCiiv-69" value="Расчет топлива" style="shape=ellipse;html=1;dashed=0;whitespace=wrap;aspect=fixed;perimeter=ellipsePerimeter;fontSize=20;" parent="1" vertex="1">
          <mxGeometry x="3130" y="1350" width="145" height="145" as="geometry" />
        </mxCell>
        <mxCell id="xEE5lDKMHfWcPHZwCiiv-71" value="&lt;font style=&quot;font-size: 20px;&quot;&gt;Время круга&lt;/font&gt;" style="text;html=1;align=center;verticalAlign=middle;resizable=0;points=[];autosize=1;strokeColor=none;fillColor=none;" parent="1" vertex="1">
          <mxGeometry x="2650" y="1250" width="130" height="20" as="geometry" />
        </mxCell>
        <mxCell id="xEE5lDKMHfWcPHZwCiiv-73" value="&lt;font style=&quot;font-size: 20px;&quot;&gt;Расход за &lt;br&gt;1 круг&lt;/font&gt;" style="text;html=1;align=center;verticalAlign=middle;resizable=0;points=[];autosize=1;strokeColor=none;fillColor=none;" parent="1" vertex="1">
          <mxGeometry x="2795" y="1290" width="110" height="40" as="geometry" />
        </mxCell>
        <mxCell id="xEE5lDKMHfWcPHZwCiiv-75" value="&lt;font style=&quot;font-size: 20px;&quot;&gt;Время&lt;br&gt;заезда&lt;/font&gt;" style="text;html=1;align=center;verticalAlign=middle;resizable=0;points=[];autosize=1;strokeColor=none;fillColor=none;" parent="1" vertex="1">
          <mxGeometry x="2975" y="1270" width="80" height="40" as="geometry" />
        </mxCell>
        <mxCell id="xEE5lDKMHfWcPHZwCiiv-77" value="&lt;font style=&quot;font-size: 20px;&quot;&gt;Количество&lt;br&gt;необходимого&lt;br&gt;топлива&lt;/font&gt;" style="text;html=1;align=center;verticalAlign=middle;resizable=0;points=[];autosize=1;strokeColor=none;fillColor=none;" parent="1" vertex="1">
          <mxGeometry x="3180" y="1205" width="150" height="60" as="geometry" />
        </mxCell>
        <mxCell id="xEE5lDKMHfWcPHZwCiiv-89" style="edgeStyle=orthogonalEdgeStyle;curved=1;rounded=0;orthogonalLoop=1;jettySize=auto;html=1;exitX=0.5;exitY=0;exitDx=0;exitDy=0;entryX=0.5;entryY=0;entryDx=0;entryDy=0;fontSize=20;startArrow=none;startFill=0;endArrow=classic;endFill=1;" parent="1" source="xEE5lDKMHfWcPHZwCiiv-83" target="xEE5lDKMHfWcPHZwCiiv-68" edge="1">
          <mxGeometry relative="1" as="geometry" />
        </mxCell>
        <mxCell id="xEE5lDKMHfWcPHZwCiiv-83" value="Определение&lt;br&gt;советов" style="shape=ellipse;html=1;dashed=0;whitespace=wrap;aspect=fixed;perimeter=ellipsePerimeter;fontSize=20;" parent="1" vertex="1">
          <mxGeometry x="3360" y="1020" width="145" height="145" as="geometry" />
        </mxCell>
        <mxCell id="xEE5lDKMHfWcPHZwCiiv-86" value="&lt;span style=&quot;font-size: 20px;&quot;&gt;Ответы на вопросы&lt;/span&gt;" style="text;html=1;align=center;verticalAlign=middle;resizable=0;points=[];autosize=1;strokeColor=none;fillColor=none;" parent="1" vertex="1">
          <mxGeometry x="3130" y="1030" width="200" height="20" as="geometry" />
        </mxCell>
        <mxCell id="xEE5lDKMHfWcPHZwCiiv-87" value="&lt;span style=&quot;font-size: 20px;&quot;&gt;Советы по настройке&lt;/span&gt;" style="text;html=1;align=center;verticalAlign=middle;resizable=0;points=[];autosize=1;strokeColor=none;fillColor=none;" parent="1" vertex="1">
          <mxGeometry x="3120" y="960" width="210" height="20" as="geometry" />
        </mxCell>
        <mxCell id="xEE5lDKMHfWcPHZwCiiv-90" value="1" style="text;html=1;align=center;verticalAlign=middle;resizable=0;points=[];autosize=1;strokeColor=none;fillColor=none;fontSize=20;" parent="1" vertex="1">
          <mxGeometry x="3187.5" y="1350" width="30" height="30" as="geometry" />
        </mxCell>
        <mxCell id="xEE5lDKMHfWcPHZwCiiv-91" value="2" style="text;html=1;align=center;verticalAlign=middle;resizable=0;points=[];autosize=1;strokeColor=none;fillColor=none;fontSize=20;" parent="1" vertex="1">
          <mxGeometry x="3417.5" y="1020" width="30" height="30" as="geometry" />
        </mxCell>
        <mxCell id="xEE5lDKMHfWcPHZwCiiv-92" value="1" style="text;html=1;align=center;verticalAlign=middle;resizable=0;points=[];autosize=1;strokeColor=none;fillColor=none;fontSize=20;" parent="1" vertex="1">
          <mxGeometry x="2850" y="1080" width="30" height="30" as="geometry" />
        </mxCell>
        <mxCell id="xriNwPtEzMUyClS9Vuju-1" value="Время круга" style="text;html=1;align=center;verticalAlign=middle;resizable=0;points=[];autosize=1;strokeColor=none;fillColor=none;" parent="1" vertex="1">
          <mxGeometry x="1840" y="1160" width="80" height="20" as="geometry" />
        </mxCell>
        <mxCell id="xriNwPtEzMUyClS9Vuju-2" style="rounded=0;orthogonalLoop=1;jettySize=auto;html=1;exitX=0.006;exitY=0.1;exitDx=0;exitDy=0;fontSize=50;startArrow=classic;startFill=1;endArrow=none;endFill=0;edgeStyle=orthogonalEdgeStyle;exitPerimeter=0;" parent="1" edge="1">
          <mxGeometry relative="1" as="geometry">
            <mxPoint x="1830" y="1200" as="targetPoint" />
            <mxPoint x="1930.44" y="1200" as="sourcePoint" />
            <Array as="points">
              <mxPoint x="1840" y="1200" />
            </Array>
          </mxGeometry>
        </mxCell>
        <mxCell id="xriNwPtEzMUyClS9Vuju-4" value="Расход топлива" style="text;html=1;align=center;verticalAlign=middle;resizable=0;points=[];autosize=1;strokeColor=none;fillColor=none;" parent="1" vertex="1">
          <mxGeometry x="1830" y="1180" width="100" height="20" as="geometry" />
        </mxCell>
        <mxCell id="xriNwPtEzMUyClS9Vuju-5" style="rounded=0;orthogonalLoop=1;jettySize=auto;html=1;exitX=0.006;exitY=0.1;exitDx=0;exitDy=0;fontSize=50;startArrow=classic;startFill=1;endArrow=none;endFill=0;edgeStyle=orthogonalEdgeStyle;exitPerimeter=0;" parent="1" edge="1">
          <mxGeometry relative="1" as="geometry">
            <mxPoint x="1830" y="1220" as="targetPoint" />
            <mxPoint x="1930.44" y="1220" as="sourcePoint" />
            <Array as="points">
              <mxPoint x="1840" y="1220" />
            </Array>
          </mxGeometry>
        </mxCell>
        <mxCell id="xriNwPtEzMUyClS9Vuju-6" style="rounded=0;orthogonalLoop=1;jettySize=auto;html=1;exitX=0.006;exitY=0.1;exitDx=0;exitDy=0;fontSize=50;startArrow=classic;startFill=1;endArrow=none;endFill=0;edgeStyle=orthogonalEdgeStyle;exitPerimeter=0;" parent="1" edge="1">
          <mxGeometry relative="1" as="geometry">
            <mxPoint x="1830" y="1240" as="targetPoint" />
            <mxPoint x="1930.44" y="1240" as="sourcePoint" />
            <Array as="points">
              <mxPoint x="1840" y="1240" />
            </Array>
          </mxGeometry>
        </mxCell>
        <mxCell id="xriNwPtEzMUyClS9Vuju-8" value="Время заезда" style="text;html=1;align=center;verticalAlign=middle;resizable=0;points=[];autosize=1;strokeColor=none;fillColor=none;" parent="1" vertex="1">
          <mxGeometry x="1835" y="1200" width="90" height="20" as="geometry" />
        </mxCell>
        <mxCell id="xriNwPtEzMUyClS9Vuju-9" value="Ответы пользователя" style="text;html=1;align=center;verticalAlign=middle;resizable=0;points=[];autosize=1;strokeColor=none;fillColor=none;" parent="1" vertex="1">
          <mxGeometry x="1796.28" y="1215" width="140" height="30" as="geometry" />
        </mxCell>
        <mxCell id="xriNwPtEzMUyClS9Vuju-12" value="Пользоваетль" style="text;html=1;align=center;verticalAlign=middle;resizable=0;points=[];autosize=1;strokeColor=none;fillColor=none;fontSize=16;" parent="1" vertex="1">
          <mxGeometry x="1870" y="1410" width="120" height="20" as="geometry" />
        </mxCell>
        <mxCell id="xriNwPtEzMUyClS9Vuju-13" style="edgeStyle=orthogonalEdgeStyle;rounded=0;orthogonalLoop=1;jettySize=auto;html=1;exitX=0.75;exitY=1;exitDx=0;exitDy=0;fontSize=16;startArrow=classic;startFill=1;endArrow=none;endFill=0;" parent="1" source="xEE5lDKMHfWcPHZwCiiv-32" edge="1">
          <mxGeometry relative="1" as="geometry">
            <mxPoint x="2109" y="1480" as="targetPoint" />
            <mxPoint x="2109" y="1370" as="sourcePoint" />
            <Array as="points" />
          </mxGeometry>
        </mxCell>
        <mxCell id="xriNwPtEzMUyClS9Vuju-14" value="Вычислительная&lt;br&gt;машина" style="text;html=1;align=center;verticalAlign=middle;resizable=0;points=[];autosize=1;strokeColor=none;fillColor=none;fontSize=16;" parent="1" vertex="1">
          <mxGeometry x="2110" y="1400" width="140" height="40" as="geometry" />
        </mxCell>
        <mxCell id="xriNwPtEzMUyClS9Vuju-16" style="rounded=0;orthogonalLoop=1;jettySize=auto;html=1;exitX=0.006;exitY=0.1;exitDx=0;exitDy=0;fontSize=50;startArrow=classic;startFill=1;endArrow=none;endFill=0;edgeStyle=orthogonalEdgeStyle;exitPerimeter=0;" parent="1" edge="1">
          <mxGeometry relative="1" as="geometry">
            <mxPoint x="1930" y="1800" as="targetPoint" />
            <mxPoint x="2030.44" y="1800" as="sourcePoint" />
            <Array as="points">
              <mxPoint x="1940" y="1800" />
            </Array>
          </mxGeometry>
        </mxCell>
        <mxCell id="xriNwPtEzMUyClS9Vuju-17" value="Время круга" style="text;html=1;align=center;verticalAlign=middle;resizable=0;points=[];autosize=1;strokeColor=none;fillColor=none;" parent="1" vertex="1">
          <mxGeometry x="1940" y="1780" width="80" height="20" as="geometry" />
        </mxCell>
        <mxCell id="xriNwPtEzMUyClS9Vuju-18" style="rounded=0;orthogonalLoop=1;jettySize=auto;html=1;exitX=0.006;exitY=0.1;exitDx=0;exitDy=0;fontSize=50;startArrow=classic;startFill=1;endArrow=none;endFill=0;edgeStyle=orthogonalEdgeStyle;exitPerimeter=0;" parent="1" edge="1">
          <mxGeometry relative="1" as="geometry">
            <mxPoint x="1930" y="1820" as="targetPoint" />
            <mxPoint x="2030.44" y="1820" as="sourcePoint" />
            <Array as="points">
              <mxPoint x="1940" y="1820" />
            </Array>
          </mxGeometry>
        </mxCell>
        <mxCell id="xriNwPtEzMUyClS9Vuju-19" value="Расход топлива" style="text;html=1;align=center;verticalAlign=middle;resizable=0;points=[];autosize=1;strokeColor=none;fillColor=none;" parent="1" vertex="1">
          <mxGeometry x="1930" y="1800" width="100" height="20" as="geometry" />
        </mxCell>
        <mxCell id="xriNwPtEzMUyClS9Vuju-20" style="rounded=0;orthogonalLoop=1;jettySize=auto;html=1;exitX=0.006;exitY=0.1;exitDx=0;exitDy=0;fontSize=50;startArrow=classic;startFill=1;endArrow=none;endFill=0;edgeStyle=orthogonalEdgeStyle;exitPerimeter=0;" parent="1" edge="1">
          <mxGeometry relative="1" as="geometry">
            <mxPoint x="1930" y="1840" as="targetPoint" />
            <mxPoint x="2030.44" y="1840" as="sourcePoint" />
            <Array as="points">
              <mxPoint x="1940" y="1840" />
            </Array>
          </mxGeometry>
        </mxCell>
        <mxCell id="xriNwPtEzMUyClS9Vuju-21" value="Время заезда" style="text;html=1;align=center;verticalAlign=middle;resizable=0;points=[];autosize=1;strokeColor=none;fillColor=none;" parent="1" vertex="1">
          <mxGeometry x="1935" y="1820" width="90" height="20" as="geometry" />
        </mxCell>
        <mxCell id="xriNwPtEzMUyClS9Vuju-22" style="edgeStyle=orthogonalEdgeStyle;rounded=0;orthogonalLoop=1;jettySize=auto;html=1;exitX=0.25;exitY=1;exitDx=0;exitDy=0;fontSize=16;startArrow=classic;startFill=1;endArrow=none;endFill=0;" parent="1" edge="1">
          <mxGeometry relative="1" as="geometry">
            <mxPoint x="1820" y="2360" as="targetPoint" />
            <mxPoint x="1819" y="1940" as="sourcePoint" />
            <Array as="points">
              <mxPoint x="1819" y="2250" />
              <mxPoint x="1820" y="2340" />
            </Array>
          </mxGeometry>
        </mxCell>
        <mxCell id="xriNwPtEzMUyClS9Vuju-23" value="Пользоваетль" style="text;html=1;align=center;verticalAlign=middle;resizable=0;points=[];autosize=1;strokeColor=none;fillColor=none;fontSize=16;" parent="1" vertex="1">
          <mxGeometry x="1590" y="3530" width="120" height="20" as="geometry" />
        </mxCell>
        <mxCell id="xriNwPtEzMUyClS9Vuju-25" style="rounded=0;orthogonalLoop=1;jettySize=auto;html=1;exitX=0.006;exitY=0.1;exitDx=0;exitDy=0;fontSize=50;startArrow=classic;startFill=1;endArrow=none;endFill=0;edgeStyle=orthogonalEdgeStyle;exitPerimeter=0;" parent="1" edge="1">
          <mxGeometry relative="1" as="geometry">
            <mxPoint x="2120" y="2000" as="targetPoint" />
            <mxPoint x="2220.44" y="2000" as="sourcePoint" />
            <Array as="points">
              <mxPoint x="2130" y="2000" />
            </Array>
          </mxGeometry>
        </mxCell>
        <mxCell id="xriNwPtEzMUyClS9Vuju-26" value="Ответы&lt;br&gt;пользователя" style="text;html=1;align=center;verticalAlign=middle;resizable=0;points=[];autosize=1;strokeColor=none;fillColor=none;" parent="1" vertex="1">
          <mxGeometry x="2120" y="1966" width="100" height="40" as="geometry" />
        </mxCell>
        <mxCell id="xriNwPtEzMUyClS9Vuju-27" style="edgeStyle=orthogonalEdgeStyle;rounded=0;orthogonalLoop=1;jettySize=auto;html=1;exitX=0.25;exitY=1;exitDx=0;exitDy=0;fontSize=16;startArrow=classic;startFill=1;endArrow=oval;endFill=1;" parent="1" edge="1">
          <mxGeometry relative="1" as="geometry">
            <mxPoint x="1820" y="2130" as="targetPoint" />
            <mxPoint x="2049.5" y="1889.9999999999995" as="sourcePoint" />
            <Array as="points">
              <mxPoint x="2049" y="1900" />
              <mxPoint x="2049" y="2010" />
              <mxPoint x="2050" y="2010" />
              <mxPoint x="2050" y="2130" />
            </Array>
          </mxGeometry>
        </mxCell>
        <mxCell id="xriNwPtEzMUyClS9Vuju-30" value="Вычислительная&lt;br&gt;машина" style="text;html=1;align=center;verticalAlign=middle;resizable=0;points=[];autosize=1;strokeColor=none;fillColor=none;fontSize=16;" parent="1" vertex="1">
          <mxGeometry x="2040" y="2380" width="140" height="40" as="geometry" />
        </mxCell>
        <mxCell id="xriNwPtEzMUyClS9Vuju-35" style="edgeStyle=orthogonalEdgeStyle;rounded=0;orthogonalLoop=1;jettySize=auto;html=1;exitX=0.5;exitY=1;exitDx=0;exitDy=0;entryX=0.5;entryY=0;entryDx=0;entryDy=0;fontSize=16;startArrow=none;startFill=0;endArrow=classic;endFill=1;" parent="1" source="xriNwPtEzMUyClS9Vuju-33" target="xriNwPtEzMUyClS9Vuju-37" edge="1">
          <mxGeometry relative="1" as="geometry">
            <mxPoint x="180" y="1825" as="targetPoint" />
          </mxGeometry>
        </mxCell>
        <mxCell id="xriNwPtEzMUyClS9Vuju-33" value="НАЧАЛО" style="rounded=1;whiteSpace=wrap;html=1;fontSize=16;" parent="1" vertex="1">
          <mxGeometry x="120" y="1720" width="160" height="60" as="geometry" />
        </mxCell>
        <mxCell id="xriNwPtEzMUyClS9Vuju-40" style="edgeStyle=orthogonalEdgeStyle;rounded=0;orthogonalLoop=1;jettySize=auto;html=1;exitX=0.5;exitY=1;exitDx=0;exitDy=0;entryX=0.5;entryY=0;entryDx=0;entryDy=0;fontSize=16;startArrow=none;startFill=0;endArrow=classic;endFill=1;" parent="1" source="xriNwPtEzMUyClS9Vuju-37" target="xriNwPtEzMUyClS9Vuju-39" edge="1">
          <mxGeometry relative="1" as="geometry" />
        </mxCell>
        <mxCell id="xriNwPtEzMUyClS9Vuju-37" value="Считать время&lt;br&gt;круга" style="shape=parallelogram;perimeter=parallelogramPerimeter;whiteSpace=wrap;html=1;fixedSize=1;fontSize=16;" parent="1" vertex="1">
          <mxGeometry x="120" y="1825" width="160" height="60" as="geometry" />
        </mxCell>
        <mxCell id="xriNwPtEzMUyClS9Vuju-42" style="edgeStyle=orthogonalEdgeStyle;rounded=0;orthogonalLoop=1;jettySize=auto;html=1;exitX=0.5;exitY=1;exitDx=0;exitDy=0;entryX=0.5;entryY=0;entryDx=0;entryDy=0;fontSize=16;startArrow=none;startFill=0;endArrow=classic;endFill=1;" parent="1" source="xriNwPtEzMUyClS9Vuju-39" target="xriNwPtEzMUyClS9Vuju-41" edge="1">
          <mxGeometry relative="1" as="geometry" />
        </mxCell>
        <mxCell id="xriNwPtEzMUyClS9Vuju-39" value="Считать время&lt;br&gt;заезда" style="shape=parallelogram;perimeter=parallelogramPerimeter;whiteSpace=wrap;html=1;fixedSize=1;fontSize=16;" parent="1" vertex="1">
          <mxGeometry x="120" y="1925" width="160" height="60" as="geometry" />
        </mxCell>
        <mxCell id="xriNwPtEzMUyClS9Vuju-44" style="edgeStyle=orthogonalEdgeStyle;rounded=0;orthogonalLoop=1;jettySize=auto;html=1;exitX=0.5;exitY=1;exitDx=0;exitDy=0;entryX=0.5;entryY=0;entryDx=0;entryDy=0;fontSize=16;startArrow=none;startFill=0;endArrow=classic;endFill=1;" parent="1" source="xriNwPtEzMUyClS9Vuju-41" target="xriNwPtEzMUyClS9Vuju-43" edge="1">
          <mxGeometry relative="1" as="geometry" />
        </mxCell>
        <mxCell id="xriNwPtEzMUyClS9Vuju-41" value="Считать расход топлива" style="shape=parallelogram;perimeter=parallelogramPerimeter;whiteSpace=wrap;html=1;fixedSize=1;fontSize=16;" parent="1" vertex="1">
          <mxGeometry x="120" y="2025" width="160" height="60" as="geometry" />
        </mxCell>
        <mxCell id="xriNwPtEzMUyClS9Vuju-49" style="edgeStyle=orthogonalEdgeStyle;rounded=0;orthogonalLoop=1;jettySize=auto;html=1;exitX=0.5;exitY=1;exitDx=0;exitDy=0;entryX=0.5;entryY=0;entryDx=0;entryDy=0;fontSize=16;startArrow=none;startFill=0;endArrow=classic;endFill=1;" parent="1" source="xriNwPtEzMUyClS9Vuju-43" target="xriNwPtEzMUyClS9Vuju-48" edge="1">
          <mxGeometry relative="1" as="geometry" />
        </mxCell>
        <mxCell id="xriNwPtEzMUyClS9Vuju-43" value="Расчет топлива" style="shape=process;whiteSpace=wrap;html=1;backgroundOutline=1;fontSize=16;" parent="1" vertex="1">
          <mxGeometry x="120" y="2120" width="160" height="60" as="geometry" />
        </mxCell>
        <mxCell id="xriNwPtEzMUyClS9Vuju-45" value="" style="strokeWidth=2;html=1;shape=mxgraph.flowchart.annotation_2;align=left;labelPosition=right;pointerEvents=1;fontSize=16;" parent="1" vertex="1">
          <mxGeometry x="350" y="2100" width="50" height="100" as="geometry" />
        </mxCell>
        <mxCell id="xriNwPtEzMUyClS9Vuju-46" value="" style="endArrow=none;dashed=1;html=1;rounded=0;fontSize=16;exitX=1;exitY=0.5;exitDx=0;exitDy=0;" parent="1" source="xriNwPtEzMUyClS9Vuju-43" edge="1">
          <mxGeometry width="50" height="50" relative="1" as="geometry">
            <mxPoint x="300" y="2190" as="sourcePoint" />
            <mxPoint x="350" y="2150" as="targetPoint" />
          </mxGeometry>
        </mxCell>
        <mxCell id="xriNwPtEzMUyClS9Vuju-47" value="Расчет безопасной и&lt;br&gt;рискованной стратегии&lt;br&gt;по формулам" style="text;html=1;align=center;verticalAlign=middle;resizable=0;points=[];autosize=1;strokeColor=none;fillColor=none;fontSize=16;" parent="1" vertex="1">
          <mxGeometry x="370" y="2120" width="190" height="60" as="geometry" />
        </mxCell>
        <mxCell id="xriNwPtEzMUyClS9Vuju-51" style="edgeStyle=orthogonalEdgeStyle;rounded=0;orthogonalLoop=1;jettySize=auto;html=1;exitX=0.5;exitY=1;exitDx=0;exitDy=0;entryX=0.5;entryY=0;entryDx=0;entryDy=0;fontSize=16;startArrow=none;startFill=0;endArrow=classic;endFill=1;" parent="1" source="xriNwPtEzMUyClS9Vuju-48" target="xriNwPtEzMUyClS9Vuju-50" edge="1">
          <mxGeometry relative="1" as="geometry" />
        </mxCell>
        <mxCell id="xriNwPtEzMUyClS9Vuju-48" value="Вывести&lt;br&gt;количество необходимого топлива" style="shape=parallelogram;perimeter=parallelogramPerimeter;whiteSpace=wrap;html=1;fixedSize=1;fontSize=16;" parent="1" vertex="1">
          <mxGeometry x="120" y="2210" width="160" height="80" as="geometry" />
        </mxCell>
        <mxCell id="xriNwPtEzMUyClS9Vuju-50" value="КОНЕЦ" style="rounded=1;whiteSpace=wrap;html=1;fontSize=16;" parent="1" vertex="1">
          <mxGeometry x="120" y="2330" width="160" height="60" as="geometry" />
        </mxCell>
        <mxCell id="xriNwPtEzMUyClS9Vuju-52" value="&lt;font style=&quot;font-size: 30px;&quot;&gt;Расчет топливва&lt;/font&gt;" style="text;html=1;align=center;verticalAlign=middle;resizable=0;points=[];autosize=1;strokeColor=none;fillColor=none;fontSize=16;" parent="1" vertex="1">
          <mxGeometry x="75" y="1650" width="250" height="30" as="geometry" />
        </mxCell>
        <mxCell id="xriNwPtEzMUyClS9Vuju-102" style="edgeStyle=orthogonalEdgeStyle;rounded=0;orthogonalLoop=1;jettySize=auto;html=1;exitX=0.5;exitY=1;exitDx=0;exitDy=0;entryX=0.5;entryY=0;entryDx=0;entryDy=0;fontSize=16;startArrow=none;startFill=0;endArrow=classic;endFill=1;" parent="1" source="xriNwPtEzMUyClS9Vuju-53" target="xriNwPtEzMUyClS9Vuju-101" edge="1">
          <mxGeometry relative="1" as="geometry" />
        </mxCell>
        <mxCell id="xriNwPtEzMUyClS9Vuju-53" value="НАЧАЛО" style="rounded=1;whiteSpace=wrap;html=1;fontSize=16;" parent="1" vertex="1">
          <mxGeometry x="570" y="1870" width="160" height="60" as="geometry" />
        </mxCell>
        <mxCell id="xriNwPtEzMUyClS9Vuju-54" value="&lt;span style=&quot;font-size: 30px;&quot;&gt;Определение советов&lt;br&gt;&lt;/span&gt;" style="text;html=1;align=center;verticalAlign=middle;resizable=0;points=[];autosize=1;strokeColor=none;fillColor=none;fontSize=16;" parent="1" vertex="1">
          <mxGeometry x="827" y="1570" width="320" height="30" as="geometry" />
        </mxCell>
        <mxCell id="xriNwPtEzMUyClS9Vuju-60" style="edgeStyle=orthogonalEdgeStyle;rounded=0;orthogonalLoop=1;jettySize=auto;html=1;exitX=0.5;exitY=1;exitDx=0;exitDy=0;entryX=0.5;entryY=0;entryDx=0;entryDy=0;fontSize=18;startArrow=none;startFill=0;endArrow=classic;endFill=1;" parent="1" source="xriNwPtEzMUyClS9Vuju-57" target="xriNwPtEzMUyClS9Vuju-59" edge="1">
          <mxGeometry relative="1" as="geometry" />
        </mxCell>
        <mxCell id="xriNwPtEzMUyClS9Vuju-57" value="Вывод вопроса" style="shape=parallelogram;perimeter=parallelogramPerimeter;whiteSpace=wrap;html=1;fixedSize=1;fontSize=18;" parent="1" vertex="1">
          <mxGeometry x="570" y="2206" width="160" height="60" as="geometry" />
        </mxCell>
        <mxCell id="xriNwPtEzMUyClS9Vuju-106" style="edgeStyle=orthogonalEdgeStyle;rounded=0;orthogonalLoop=1;jettySize=auto;html=1;exitX=0.5;exitY=1;exitDx=0;exitDy=0;entryX=0.5;entryY=0;entryDx=0;entryDy=0;fontSize=16;startArrow=none;startFill=0;endArrow=classic;endFill=1;" parent="1" source="xriNwPtEzMUyClS9Vuju-59" target="xriNwPtEzMUyClS9Vuju-105" edge="1">
          <mxGeometry relative="1" as="geometry" />
        </mxCell>
        <mxCell id="xriNwPtEzMUyClS9Vuju-59" value="Считывание ответа C" style="shape=parallelogram;perimeter=parallelogramPerimeter;whiteSpace=wrap;html=1;fixedSize=1;fontSize=18;" parent="1" vertex="1">
          <mxGeometry x="570" y="2296" width="160" height="60" as="geometry" />
        </mxCell>
        <mxCell id="xriNwPtEzMUyClS9Vuju-65" style="edgeStyle=orthogonalEdgeStyle;rounded=0;orthogonalLoop=1;jettySize=auto;html=1;exitX=0.5;exitY=0;exitDx=0;exitDy=0;entryX=0.5;entryY=0;entryDx=0;entryDy=0;fontSize=18;startArrow=none;startFill=0;endArrow=classic;endFill=1;" parent="1" source="xriNwPtEzMUyClS9Vuju-96" target="xriNwPtEzMUyClS9Vuju-69" edge="1">
          <mxGeometry relative="1" as="geometry">
            <mxPoint x="650" y="2666" as="sourcePoint" />
            <mxPoint x="650" y="2746" as="targetPoint" />
          </mxGeometry>
        </mxCell>
        <mxCell id="xriNwPtEzMUyClS9Vuju-72" style="edgeStyle=orthogonalEdgeStyle;rounded=0;orthogonalLoop=1;jettySize=auto;html=1;exitX=0.5;exitY=1;exitDx=0;exitDy=0;entryX=0.5;entryY=0;entryDx=0;entryDy=0;fontSize=18;startArrow=none;startFill=0;endArrow=classic;endFill=1;" parent="1" source="xriNwPtEzMUyClS9Vuju-69" target="xriNwPtEzMUyClS9Vuju-71" edge="1">
          <mxGeometry relative="1" as="geometry" />
        </mxCell>
        <mxCell id="xriNwPtEzMUyClS9Vuju-69" value="Вывод советов" style="shape=parallelogram;perimeter=parallelogramPerimeter;whiteSpace=wrap;html=1;fixedSize=1;fontSize=18;" parent="1" vertex="1">
          <mxGeometry x="570" y="2746" width="160" height="60" as="geometry" />
        </mxCell>
        <mxCell id="xriNwPtEzMUyClS9Vuju-71" value="КОНЕЦ" style="rounded=1;whiteSpace=wrap;html=1;fontSize=16;" parent="1" vertex="1">
          <mxGeometry x="570" y="2848" width="160" height="60" as="geometry" />
        </mxCell>
        <mxCell id="xriNwPtEzMUyClS9Vuju-76" style="edgeStyle=orthogonalEdgeStyle;rounded=0;orthogonalLoop=1;jettySize=auto;html=1;exitX=0.5;exitY=1;exitDx=0;exitDy=0;entryX=0.5;entryY=0;entryDx=0;entryDy=0;fontSize=18;startArrow=none;startFill=0;endArrow=classic;endFill=1;" parent="1" source="xriNwPtEzMUyClS9Vuju-73" target="xriNwPtEzMUyClS9Vuju-75" edge="1">
          <mxGeometry relative="1" as="geometry" />
        </mxCell>
        <mxCell id="xriNwPtEzMUyClS9Vuju-73" value="НАЧАЛО&lt;br&gt;Расчет топлива" style="rounded=1;whiteSpace=wrap;html=1;fontSize=16;" parent="1" vertex="1">
          <mxGeometry x="120" y="2480" width="160" height="60" as="geometry" />
        </mxCell>
        <mxCell id="xriNwPtEzMUyClS9Vuju-74" value="Расчет топлива&lt;br&gt;КОНЕЦ" style="rounded=1;whiteSpace=wrap;html=1;fontSize=16;" parent="1" vertex="1">
          <mxGeometry x="120" y="2970" width="160" height="60" as="geometry" />
        </mxCell>
        <mxCell id="xriNwPtEzMUyClS9Vuju-81" style="edgeStyle=orthogonalEdgeStyle;rounded=0;orthogonalLoop=1;jettySize=auto;html=1;exitX=0.5;exitY=1;exitDx=0;exitDy=0;entryX=0.5;entryY=0;entryDx=0;entryDy=0;fontSize=18;startArrow=none;startFill=0;endArrow=classic;endFill=1;" parent="1" source="xriNwPtEzMUyClS9Vuju-75" target="xriNwPtEzMUyClS9Vuju-80" edge="1">
          <mxGeometry relative="1" as="geometry" />
        </mxCell>
        <mxCell id="xriNwPtEzMUyClS9Vuju-75" value="t, T, l" style="shape=parallelogram;perimeter=parallelogramPerimeter;whiteSpace=wrap;html=1;fixedSize=1;fontSize=18;" parent="1" vertex="1">
          <mxGeometry x="120" y="2580" width="160" height="60" as="geometry" />
        </mxCell>
        <mxCell id="xriNwPtEzMUyClS9Vuju-77" value="" style="strokeWidth=2;html=1;shape=mxgraph.flowchart.annotation_2;align=left;labelPosition=right;pointerEvents=1;fontSize=16;" parent="1" vertex="1">
          <mxGeometry x="360" y="2560" width="50" height="100" as="geometry" />
        </mxCell>
        <mxCell id="xriNwPtEzMUyClS9Vuju-78" value="" style="endArrow=none;dashed=1;html=1;rounded=0;fontSize=16;exitX=1;exitY=0.5;exitDx=0;exitDy=0;" parent="1" source="xriNwPtEzMUyClS9Vuju-75" edge="1">
          <mxGeometry width="50" height="50" relative="1" as="geometry">
            <mxPoint x="290.0000000000002" y="2610.0000000000005" as="sourcePoint" />
            <mxPoint x="360.0000000000002" y="2610.0000000000005" as="targetPoint" />
          </mxGeometry>
        </mxCell>
        <mxCell id="xriNwPtEzMUyClS9Vuju-79" value="t - время круга&lt;br&gt;T - время заезда&lt;br&gt;l - расход топлива" style="text;html=1;align=center;verticalAlign=middle;resizable=0;points=[];autosize=1;strokeColor=none;fillColor=none;fontSize=16;" parent="1" vertex="1">
          <mxGeometry x="390" y="2580" width="150" height="60" as="geometry" />
        </mxCell>
        <mxCell id="xriNwPtEzMUyClS9Vuju-83" style="edgeStyle=orthogonalEdgeStyle;rounded=0;orthogonalLoop=1;jettySize=auto;html=1;exitX=0.5;exitY=1;exitDx=0;exitDy=0;entryX=0.5;entryY=0;entryDx=0;entryDy=0;fontSize=18;startArrow=none;startFill=0;endArrow=classic;endFill=1;" parent="1" source="xriNwPtEzMUyClS9Vuju-80" target="xriNwPtEzMUyClS9Vuju-82" edge="1">
          <mxGeometry relative="1" as="geometry" />
        </mxCell>
        <mxCell id="xriNwPtEzMUyClS9Vuju-80" value="L1 = (T/t)*l + 2" style="rounded=0;whiteSpace=wrap;html=1;fontSize=18;" parent="1" vertex="1">
          <mxGeometry x="120" y="2680" width="160" height="60" as="geometry" />
        </mxCell>
        <mxCell id="xriNwPtEzMUyClS9Vuju-84" style="edgeStyle=orthogonalEdgeStyle;rounded=0;orthogonalLoop=1;jettySize=auto;html=1;exitX=0.5;exitY=1;exitDx=0;exitDy=0;fontSize=18;startArrow=none;startFill=0;endArrow=classic;endFill=1;" parent="1" source="xriNwPtEzMUyClS9Vuju-82" edge="1">
          <mxGeometry relative="1" as="geometry">
            <mxPoint x="200" y="2870" as="targetPoint" />
          </mxGeometry>
        </mxCell>
        <mxCell id="xriNwPtEzMUyClS9Vuju-82" value="L2 = (T/t)*l + 6" style="rounded=0;whiteSpace=wrap;html=1;fontSize=18;" parent="1" vertex="1">
          <mxGeometry x="120" y="2780" width="160" height="60" as="geometry" />
        </mxCell>
        <mxCell id="xriNwPtEzMUyClS9Vuju-86" style="edgeStyle=orthogonalEdgeStyle;rounded=0;orthogonalLoop=1;jettySize=auto;html=1;exitX=0.5;exitY=1;exitDx=0;exitDy=0;entryX=0.5;entryY=0;entryDx=0;entryDy=0;fontSize=18;startArrow=none;startFill=0;endArrow=classic;endFill=1;" parent="1" source="xriNwPtEzMUyClS9Vuju-85" target="xriNwPtEzMUyClS9Vuju-74" edge="1">
          <mxGeometry relative="1" as="geometry" />
        </mxCell>
        <mxCell id="xriNwPtEzMUyClS9Vuju-85" value="Вернуть&lt;br&gt;L1, L2" style="shape=parallelogram;perimeter=parallelogramPerimeter;whiteSpace=wrap;html=1;fixedSize=1;fontSize=18;" parent="1" vertex="1">
          <mxGeometry x="120" y="2870" width="160" height="60" as="geometry" />
        </mxCell>
        <mxCell id="xriNwPtEzMUyClS9Vuju-92" style="edgeStyle=orthogonalEdgeStyle;rounded=0;orthogonalLoop=1;jettySize=auto;html=1;exitX=0.5;exitY=1;exitDx=0;exitDy=0;fontSize=16;startArrow=none;startFill=0;endArrow=classic;endFill=1;" parent="1" source="xriNwPtEzMUyClS9Vuju-90" target="xriNwPtEzMUyClS9Vuju-57" edge="1">
          <mxGeometry relative="1" as="geometry" />
        </mxCell>
        <mxCell id="xriNwPtEzMUyClS9Vuju-90" value="Опрос&lt;br&gt;&lt;br&gt;i = col" style="shape=loopLimit;whiteSpace=wrap;html=1;fontSize=16;" parent="1" vertex="1">
          <mxGeometry x="570" y="2091" width="160" height="80" as="geometry" />
        </mxCell>
        <mxCell id="xriNwPtEzMUyClS9Vuju-95" style="edgeStyle=orthogonalEdgeStyle;rounded=0;orthogonalLoop=1;jettySize=auto;html=1;exitX=0.5;exitY=1;exitDx=0;exitDy=0;entryX=0.5;entryY=1;entryDx=0;entryDy=0;fontSize=16;startArrow=none;startFill=0;endArrow=classic;endFill=1;" parent="1" source="xriNwPtEzMUyClS9Vuju-93" target="xriNwPtEzMUyClS9Vuju-96" edge="1">
          <mxGeometry relative="1" as="geometry">
            <mxPoint x="650" y="2596" as="targetPoint" />
          </mxGeometry>
        </mxCell>
        <mxCell id="xriNwPtEzMUyClS9Vuju-93" value="inc(i)" style="rounded=0;whiteSpace=wrap;html=1;fontSize=18;" parent="1" vertex="1">
          <mxGeometry x="570" y="2506" width="160" height="60" as="geometry" />
        </mxCell>
        <mxCell id="xriNwPtEzMUyClS9Vuju-96" value="" style="shape=loopLimit;whiteSpace=wrap;html=1;fontSize=16;rotation=-180;" parent="1" vertex="1">
          <mxGeometry x="570" y="2606" width="160" height="80" as="geometry" />
        </mxCell>
        <mxCell id="xriNwPtEzMUyClS9Vuju-97" value="Опрос" style="text;html=1;align=center;verticalAlign=middle;resizable=0;points=[];autosize=1;strokeColor=none;fillColor=none;fontSize=16;" parent="1" vertex="1">
          <mxGeometry x="620" y="2636" width="60" height="20" as="geometry" />
        </mxCell>
        <mxCell id="xriNwPtEzMUyClS9Vuju-98" value="" style="strokeWidth=2;html=1;shape=mxgraph.flowchart.annotation_2;align=left;labelPosition=right;pointerEvents=1;fontSize=16;" parent="1" vertex="1">
          <mxGeometry x="807" y="2086" width="50" height="100" as="geometry" />
        </mxCell>
        <mxCell id="xriNwPtEzMUyClS9Vuju-99" value="" style="endArrow=none;dashed=1;html=1;rounded=0;fontSize=16;exitX=1;exitY=0.5;exitDx=0;exitDy=0;" parent="1" edge="1">
          <mxGeometry width="50" height="50" relative="1" as="geometry">
            <mxPoint x="730" y="2136" as="sourcePoint" />
            <mxPoint x="807" y="2136" as="targetPoint" />
          </mxGeometry>
        </mxCell>
        <mxCell id="xriNwPtEzMUyClS9Vuju-100" value="col - количество вопросов" style="text;html=1;align=center;verticalAlign=middle;resizable=0;points=[];autosize=1;strokeColor=none;fillColor=none;fontSize=16;" parent="1" vertex="1">
          <mxGeometry x="840" y="2126" width="210" height="20" as="geometry" />
        </mxCell>
        <mxCell id="xriNwPtEzMUyClS9Vuju-103" style="edgeStyle=orthogonalEdgeStyle;rounded=0;orthogonalLoop=1;jettySize=auto;html=1;exitX=0.5;exitY=1;exitDx=0;exitDy=0;fontSize=16;startArrow=none;startFill=0;endArrow=classic;endFill=1;entryX=0.5;entryY=0;entryDx=0;entryDy=0;" parent="1" source="xriNwPtEzMUyClS9Vuju-101" target="xriNwPtEzMUyClS9Vuju-90" edge="1">
          <mxGeometry relative="1" as="geometry">
            <mxPoint x="660" y="2046" as="targetPoint" />
          </mxGeometry>
        </mxCell>
        <mxCell id="xriNwPtEzMUyClS9Vuju-101" value="i:=0;" style="rounded=0;whiteSpace=wrap;html=1;fontSize=18;" parent="1" vertex="1">
          <mxGeometry x="570" y="1977" width="160" height="60" as="geometry" />
        </mxCell>
        <mxCell id="xriNwPtEzMUyClS9Vuju-107" style="edgeStyle=orthogonalEdgeStyle;rounded=0;orthogonalLoop=1;jettySize=auto;html=1;exitX=0.5;exitY=1;exitDx=0;exitDy=0;entryX=0.5;entryY=0;entryDx=0;entryDy=0;fontSize=16;startArrow=none;startFill=0;endArrow=classic;endFill=1;" parent="1" source="xriNwPtEzMUyClS9Vuju-105" target="xriNwPtEzMUyClS9Vuju-93" edge="1">
          <mxGeometry relative="1" as="geometry" />
        </mxCell>
        <mxCell id="xriNwPtEzMUyClS9Vuju-105" value="Opros[i]:= C" style="rounded=0;whiteSpace=wrap;html=1;fontSize=18;" parent="1" vertex="1">
          <mxGeometry x="570" y="2396" width="160" height="60" as="geometry" />
        </mxCell>
        <mxCell id="xriNwPtEzMUyClS9Vuju-108" value="&lt;font style=&quot;font-size: 12px;&quot;&gt;Расчет топлива&lt;/font&gt;" style="text;html=1;align=center;verticalAlign=middle;resizable=0;points=[];autosize=1;strokeColor=none;fillColor=none;fontSize=16;" parent="1" vertex="1">
          <mxGeometry x="1940" y="1690" width="100" height="30" as="geometry" />
        </mxCell>
        <mxCell id="xriNwPtEzMUyClS9Vuju-109" value="Советы по&lt;br&gt;настройке" style="text;html=1;align=center;verticalAlign=middle;resizable=0;points=[];autosize=1;strokeColor=none;fillColor=none;fontSize=12;" parent="1" vertex="1">
          <mxGeometry x="2155" y="1910" width="70" height="30" as="geometry" />
        </mxCell>
        <mxCell id="3V2oRIPTURKNnn8jk43x-1" style="edgeStyle=none;rounded=0;orthogonalLoop=1;jettySize=auto;html=1;exitX=0.75;exitY=0;exitDx=0;exitDy=0;fontSize=20;startArrow=classic;startFill=1;endArrow=none;endFill=0;" parent="1" edge="1">
          <mxGeometry relative="1" as="geometry">
            <mxPoint x="2060" y="1050" as="targetPoint" />
            <mxPoint x="2060" y="1160" as="sourcePoint" />
          </mxGeometry>
        </mxCell>
        <mxCell id="3V2oRIPTURKNnn8jk43x-2" value="Алгоритм сбора &lt;br&gt;информации" style="text;html=1;align=center;verticalAlign=middle;resizable=0;points=[];autosize=1;strokeColor=none;fillColor=none;fontSize=20;" parent="1" vertex="1">
          <mxGeometry x="1990" y="990" width="170" height="60" as="geometry" />
        </mxCell>
        <mxCell id="3V2oRIPTURKNnn8jk43x-3" style="edgeStyle=none;rounded=0;orthogonalLoop=1;jettySize=auto;html=1;exitX=1;exitY=0.75;exitDx=0;exitDy=0;fontSize=20;startArrow=none;startFill=0;endArrow=classic;endFill=1;" parent="1" edge="1">
          <mxGeometry relative="1" as="geometry">
            <mxPoint x="2330" y="1264.3252941176472" as="targetPoint" />
            <mxPoint x="2170" y="1264.09" as="sourcePoint" />
          </mxGeometry>
        </mxCell>
        <mxCell id="3V2oRIPTURKNnn8jk43x-4" value="Информация о результатах &lt;br&gt;турниров" style="text;html=1;align=center;verticalAlign=middle;resizable=0;points=[];autosize=1;strokeColor=none;fillColor=none;fontSize=20;" parent="1" vertex="1">
          <mxGeometry x="2169" y="1210" width="280" height="60" as="geometry" />
        </mxCell>
        <mxCell id="3V2oRIPTURKNnn8jk43x-6" style="edgeStyle=orthogonalEdgeStyle;rounded=0;orthogonalLoop=1;jettySize=auto;html=1;exitX=0.25;exitY=0;exitDx=0;exitDy=0;endArrow=oval;endFill=1;startArrow=classic;startFill=1;endSize=6;" parent="1" source="3V2oRIPTURKNnn8jk43x-5" edge="1">
          <mxGeometry relative="1" as="geometry">
            <mxPoint x="1960" y="1940" as="targetPoint" />
            <Array as="points">
              <mxPoint x="2459" y="2110" />
              <mxPoint x="1961" y="2110" />
              <mxPoint x="1961" y="1940" />
            </Array>
          </mxGeometry>
        </mxCell>
        <mxCell id="3V2oRIPTURKNnn8jk43x-11" style="edgeStyle=orthogonalEdgeStyle;rounded=0;orthogonalLoop=1;jettySize=auto;html=1;exitX=0.25;exitY=1;exitDx=0;exitDy=0;endArrow=oval;endFill=1;startArrow=classic;startFill=1;" parent="1" source="3V2oRIPTURKNnn8jk43x-5" edge="1">
          <mxGeometry relative="1" as="geometry">
            <mxPoint x="1820" y="2330" as="targetPoint" />
            <Array as="points">
              <mxPoint x="2459" y="2330" />
            </Array>
          </mxGeometry>
        </mxCell>
        <mxCell id="3V2oRIPTURKNnn8jk43x-13" style="edgeStyle=orthogonalEdgeStyle;rounded=0;orthogonalLoop=1;jettySize=auto;html=1;exitX=1;exitY=0.5;exitDx=0;exitDy=0;" parent="1" source="3V2oRIPTURKNnn8jk43x-5" edge="1">
          <mxGeometry relative="1" as="geometry">
            <mxPoint x="2800" y="2220.6666666666665" as="targetPoint" />
          </mxGeometry>
        </mxCell>
        <mxCell id="cNPebkuIrYHYyCrAwYhM-22" style="edgeStyle=orthogonalEdgeStyle;rounded=0;orthogonalLoop=1;jettySize=auto;html=1;exitX=0;exitY=0.5;exitDx=0;exitDy=0;endArrow=none;endFill=0;startArrow=classic;startFill=1;" edge="1" parent="1" source="3V2oRIPTURKNnn8jk43x-5">
          <mxGeometry relative="1" as="geometry">
            <mxPoint x="2320" y="2219.8571428571427" as="targetPoint" />
          </mxGeometry>
        </mxCell>
        <mxCell id="3V2oRIPTURKNnn8jk43x-5" value="Информация о&lt;br&gt;турнирах" style="rounded=0;whiteSpace=wrap;html=1;fontSize=20;" parent="1" vertex="1">
          <mxGeometry x="2419" y="2165" width="160" height="110" as="geometry" />
        </mxCell>
        <mxCell id="3V2oRIPTURKNnn8jk43x-7" value="Турниры" style="text;html=1;align=center;verticalAlign=middle;resizable=0;points=[];autosize=1;strokeColor=none;fillColor=none;" parent="1" vertex="1">
          <mxGeometry x="2404" y="2080" width="70" height="30" as="geometry" />
        </mxCell>
        <mxCell id="3V2oRIPTURKNnn8jk43x-8" style="edgeStyle=none;rounded=0;orthogonalLoop=1;jettySize=auto;html=1;fontSize=20;startArrow=classic;startFill=1;endArrow=none;endFill=0;exitX=0.5;exitY=0;exitDx=0;exitDy=0;" parent="1" edge="1">
          <mxGeometry relative="1" as="geometry">
            <mxPoint x="2500" y="1750" as="targetPoint" />
            <mxPoint x="2500" y="2165" as="sourcePoint" />
          </mxGeometry>
        </mxCell>
        <mxCell id="3V2oRIPTURKNnn8jk43x-9" value="Алгоритм&lt;br&gt;сбора информации" style="text;html=1;align=center;verticalAlign=middle;resizable=0;points=[];autosize=1;strokeColor=none;fillColor=none;fontSize=20;" parent="1" vertex="1">
          <mxGeometry x="2404" y="1685" width="200" height="60" as="geometry" />
        </mxCell>
        <mxCell id="3V2oRIPTURKNnn8jk43x-12" style="edgeStyle=orthogonalEdgeStyle;rounded=0;orthogonalLoop=1;jettySize=auto;html=1;exitX=0.75;exitY=1;exitDx=0;exitDy=0;fontSize=16;startArrow=classic;startFill=1;endArrow=oval;endFill=1;" parent="1" edge="1">
          <mxGeometry relative="1" as="geometry">
            <mxPoint x="2110" y="2345" as="targetPoint" />
            <Array as="points">
              <mxPoint x="2530" y="2345" />
            </Array>
            <mxPoint x="2530" y="2275" as="sourcePoint" />
          </mxGeometry>
        </mxCell>
        <mxCell id="3V2oRIPTURKNnn8jk43x-14" value="Информация о &lt;br&gt;результатах турниров" style="text;html=1;align=center;verticalAlign=middle;resizable=0;points=[];autosize=1;strokeColor=none;fillColor=none;fontSize=20;" parent="1" vertex="1">
          <mxGeometry x="2615" y="2160" width="220" height="60" as="geometry" />
        </mxCell>
        <mxCell id="3V2oRIPTURKNnn8jk43x-15" value="А.0.3" style="text;html=1;align=center;verticalAlign=middle;resizable=0;points=[];autosize=1;strokeColor=none;fillColor=none;fontSize=20;" parent="1" vertex="1">
          <mxGeometry x="2414" y="2240" width="70" height="40" as="geometry" />
        </mxCell>
        <mxCell id="3V2oRIPTURKNnn8jk43x-19" style="edgeStyle=orthogonalEdgeStyle;rounded=0;orthogonalLoop=1;jettySize=auto;html=1;exitX=1;exitY=0.5;exitDx=0;exitDy=0;entryX=0.75;entryY=1;entryDx=0;entryDy=0;curved=1;" parent="1" source="3V2oRIPTURKNnn8jk43x-16" target="xEE5lDKMHfWcPHZwCiiv-3" edge="1">
          <mxGeometry relative="1" as="geometry" />
        </mxCell>
        <mxCell id="3V2oRIPTURKNnn8jk43x-16" value="&lt;span style=&quot;font-size: 20px;&quot;&gt;Информация о турнирах&lt;/span&gt;" style="rounded=0;whiteSpace=wrap;html=1;" parent="1" vertex="1">
          <mxGeometry x="260" y="1510" width="150" height="80" as="geometry" />
        </mxCell>
        <mxCell id="3V2oRIPTURKNnn8jk43x-18" value="&lt;span style=&quot;font-size: 20px;&quot;&gt;&quot;Действие&quot; = &lt;br&gt;инф. о турнирах&lt;br&gt;&lt;/span&gt;" style="text;html=1;align=center;verticalAlign=middle;resizable=0;points=[];autosize=1;strokeColor=none;fillColor=none;fontSize=10;" parent="1" vertex="1">
          <mxGeometry x="190" y="1360" width="170" height="60" as="geometry" />
        </mxCell>
        <mxCell id="3V2oRIPTURKNnn8jk43x-20" value="&lt;span style=&quot;font-size: 20px;&quot;&gt;Всегда&lt;br&gt;Вывод инф.о &lt;br&gt;турнирах&lt;br&gt;&lt;/span&gt;" style="text;html=1;align=center;verticalAlign=middle;resizable=0;points=[];autosize=1;strokeColor=none;fillColor=none;fontSize=10;" parent="1" vertex="1">
          <mxGeometry x="445" y="1420" width="140" height="90" as="geometry" />
        </mxCell>
        <mxCell id="3V2oRIPTURKNnn8jk43x-22" value="" style="endArrow=none;html=1;rounded=0;fontSize=20;" parent="1" edge="1">
          <mxGeometry width="50" height="50" relative="1" as="geometry">
            <mxPoint x="446" y="1455" as="sourcePoint" />
            <mxPoint x="576" y="1455" as="targetPoint" />
          </mxGeometry>
        </mxCell>
        <mxCell id="cNPebkuIrYHYyCrAwYhM-1" style="edgeStyle=none;rounded=0;orthogonalLoop=1;jettySize=auto;html=1;exitX=0.5;exitY=0;exitDx=0;exitDy=0;fontSize=20;startArrow=classic;startFill=1;endArrow=none;endFill=0;" edge="1" parent="1">
          <mxGeometry relative="1" as="geometry">
            <mxPoint x="1820" y="1700" as="targetPoint" />
            <mxPoint x="1820" y="1830" as="sourcePoint" />
          </mxGeometry>
        </mxCell>
        <mxCell id="cNPebkuIrYHYyCrAwYhM-2" value="Алгоритм&lt;br&gt;перехода к&lt;br&gt;действиям" style="text;html=1;align=center;verticalAlign=middle;resizable=0;points=[];autosize=1;strokeColor=none;fillColor=none;fontSize=20;" vertex="1" parent="1">
          <mxGeometry x="1700" y="1700" width="120" height="90" as="geometry" />
        </mxCell>
        <mxCell id="cNPebkuIrYHYyCrAwYhM-34" style="edgeStyle=orthogonalEdgeStyle;rounded=0;orthogonalLoop=1;jettySize=auto;html=1;exitX=1;exitY=0.5;exitDx=0;exitDy=0;entryX=0;entryY=0.5;entryDx=0;entryDy=0;" edge="1" parent="1" source="cNPebkuIrYHYyCrAwYhM-3" target="cNPebkuIrYHYyCrAwYhM-32">
          <mxGeometry relative="1" as="geometry" />
        </mxCell>
        <mxCell id="cNPebkuIrYHYyCrAwYhM-3" value="Ввод данных" style="rounded=0;whiteSpace=wrap;html=1;fontSize=20;" vertex="1" parent="1">
          <mxGeometry x="1976.72" y="2743" width="160" height="110" as="geometry" />
        </mxCell>
        <mxCell id="cNPebkuIrYHYyCrAwYhM-4" value="А.0.1.0" style="text;html=1;align=center;verticalAlign=middle;resizable=0;points=[];autosize=1;strokeColor=none;fillColor=none;fontSize=20;" vertex="1" parent="1">
          <mxGeometry x="1973.72" y="2816" width="90" height="40" as="geometry" />
        </mxCell>
        <mxCell id="cNPebkuIrYHYyCrAwYhM-7" value="Расчет топлива" style="text;html=1;align=center;verticalAlign=middle;resizable=0;points=[];autosize=1;strokeColor=none;fillColor=none;fontSize=20;" vertex="1" parent="1">
          <mxGeometry x="1899" y="2610" width="170" height="40" as="geometry" />
        </mxCell>
        <mxCell id="cNPebkuIrYHYyCrAwYhM-14" style="rounded=0;orthogonalLoop=1;jettySize=auto;html=1;exitX=0.006;exitY=0.1;exitDx=0;exitDy=0;fontSize=50;startArrow=classic;startFill=1;endArrow=none;endFill=0;edgeStyle=orthogonalEdgeStyle;exitPerimeter=0;" edge="1" parent="1">
          <mxGeometry relative="1" as="geometry">
            <mxPoint x="1876.28" y="2759.17" as="targetPoint" />
            <mxPoint x="1976.72" y="2759.17" as="sourcePoint" />
            <Array as="points">
              <mxPoint x="1886.28" y="2759.17" />
            </Array>
          </mxGeometry>
        </mxCell>
        <mxCell id="cNPebkuIrYHYyCrAwYhM-15" value="Время круга" style="text;html=1;align=center;verticalAlign=middle;resizable=0;points=[];autosize=1;strokeColor=none;fillColor=none;" vertex="1" parent="1">
          <mxGeometry x="1886.28" y="2739.17" width="80" height="20" as="geometry" />
        </mxCell>
        <mxCell id="cNPebkuIrYHYyCrAwYhM-16" style="rounded=0;orthogonalLoop=1;jettySize=auto;html=1;exitX=0.006;exitY=0.1;exitDx=0;exitDy=0;fontSize=50;startArrow=classic;startFill=1;endArrow=none;endFill=0;edgeStyle=orthogonalEdgeStyle;exitPerimeter=0;" edge="1" parent="1">
          <mxGeometry relative="1" as="geometry">
            <mxPoint x="1876.28" y="2779.17" as="targetPoint" />
            <mxPoint x="1976.72" y="2779.17" as="sourcePoint" />
            <Array as="points">
              <mxPoint x="1886.28" y="2779.17" />
            </Array>
          </mxGeometry>
        </mxCell>
        <mxCell id="cNPebkuIrYHYyCrAwYhM-17" value="Расход топлива" style="text;html=1;align=center;verticalAlign=middle;resizable=0;points=[];autosize=1;strokeColor=none;fillColor=none;" vertex="1" parent="1">
          <mxGeometry x="1876.28" y="2759.17" width="100" height="20" as="geometry" />
        </mxCell>
        <mxCell id="cNPebkuIrYHYyCrAwYhM-18" style="rounded=0;orthogonalLoop=1;jettySize=auto;html=1;exitX=0.006;exitY=0.1;exitDx=0;exitDy=0;fontSize=50;startArrow=classic;startFill=1;endArrow=none;endFill=0;edgeStyle=orthogonalEdgeStyle;exitPerimeter=0;" edge="1" parent="1">
          <mxGeometry relative="1" as="geometry">
            <mxPoint x="1876.28" y="2799.17" as="targetPoint" />
            <mxPoint x="1976.72" y="2799.17" as="sourcePoint" />
            <Array as="points">
              <mxPoint x="1886.28" y="2799.17" />
            </Array>
          </mxGeometry>
        </mxCell>
        <mxCell id="cNPebkuIrYHYyCrAwYhM-19" value="Время заезда" style="text;html=1;align=center;verticalAlign=middle;resizable=0;points=[];autosize=1;strokeColor=none;fillColor=none;" vertex="1" parent="1">
          <mxGeometry x="1881.28" y="2779.17" width="90" height="20" as="geometry" />
        </mxCell>
        <mxCell id="cNPebkuIrYHYyCrAwYhM-20" style="edgeStyle=none;rounded=0;orthogonalLoop=1;jettySize=auto;html=1;fontSize=50;startArrow=classic;startFill=1;endArrow=none;endFill=0;" edge="1" parent="1">
          <mxGeometry relative="1" as="geometry">
            <mxPoint x="1808" y="1289.23" as="targetPoint" />
            <mxPoint x="1929" y="1289.23" as="sourcePoint" />
          </mxGeometry>
        </mxCell>
        <mxCell id="cNPebkuIrYHYyCrAwYhM-21" value="Информация о турнирах" style="text;html=1;align=center;verticalAlign=middle;resizable=0;points=[];autosize=1;strokeColor=none;fillColor=none;" vertex="1" parent="1">
          <mxGeometry x="1769" y="1260" width="160" height="30" as="geometry" />
        </mxCell>
        <mxCell id="cNPebkuIrYHYyCrAwYhM-23" value="Информация о турнирах" style="text;html=1;align=center;verticalAlign=middle;resizable=0;points=[];autosize=1;strokeColor=none;fillColor=none;" vertex="1" parent="1">
          <mxGeometry x="2259" y="2190" width="160" height="30" as="geometry" />
        </mxCell>
        <mxCell id="cNPebkuIrYHYyCrAwYhM-30" style="edgeStyle=orthogonalEdgeStyle;rounded=0;orthogonalLoop=1;jettySize=auto;html=1;exitX=1;exitY=0.5;exitDx=0;exitDy=0;entryX=0.5;entryY=0;entryDx=0;entryDy=0;" edge="1" parent="1" source="cNPebkuIrYHYyCrAwYhM-24" target="cNPebkuIrYHYyCrAwYhM-3">
          <mxGeometry relative="1" as="geometry">
            <mxPoint x="2050" y="2654.3076923076924" as="targetPoint" />
          </mxGeometry>
        </mxCell>
        <mxCell id="cNPebkuIrYHYyCrAwYhM-24" value="Выбор действия" style="rounded=0;whiteSpace=wrap;html=1;fontSize=20;" vertex="1" parent="1">
          <mxGeometry x="1570" y="2600" width="160" height="110" as="geometry" />
        </mxCell>
        <mxCell id="cNPebkuIrYHYyCrAwYhM-25" value="А.0.0" style="text;html=1;align=center;verticalAlign=middle;resizable=0;points=[];autosize=1;strokeColor=none;fillColor=none;fontSize=20;" vertex="1" parent="1">
          <mxGeometry x="1570" y="2680" width="60" height="30" as="geometry" />
        </mxCell>
        <mxCell id="cNPebkuIrYHYyCrAwYhM-26" value="" style="endArrow=classic;html=1;rounded=0;fontSize=20;entryX=0;entryY=0.5;entryDx=0;entryDy=0;" edge="1" parent="1" target="cNPebkuIrYHYyCrAwYhM-24">
          <mxGeometry width="50" height="50" relative="1" as="geometry">
            <mxPoint x="1450" y="2655" as="sourcePoint" />
            <mxPoint x="1490" y="2630" as="targetPoint" />
          </mxGeometry>
        </mxCell>
        <mxCell id="cNPebkuIrYHYyCrAwYhM-27" value="&lt;span style=&quot;font-size: 16px;&quot;&gt;Расчет топлива\&lt;/span&gt;&lt;br style=&quot;font-size: 16px;&quot;&gt;&lt;span style=&quot;font-size: 16px;&quot;&gt;Советы по настройке&lt;/span&gt;" style="text;html=1;align=center;verticalAlign=middle;resizable=0;points=[];autosize=1;strokeColor=none;fillColor=none;fontSize=20;" vertex="1" parent="1">
          <mxGeometry x="1400" y="2590" width="170" height="60" as="geometry" />
        </mxCell>
        <mxCell id="cNPebkuIrYHYyCrAwYhM-28" style="edgeStyle=none;rounded=0;orthogonalLoop=1;jettySize=auto;html=1;exitX=0.5;exitY=0;exitDx=0;exitDy=0;fontSize=20;startArrow=classic;startFill=1;endArrow=none;endFill=0;" edge="1" parent="1">
          <mxGeometry relative="1" as="geometry">
            <mxPoint x="1650" y="2470" as="targetPoint" />
            <mxPoint x="1650" y="2600" as="sourcePoint" />
          </mxGeometry>
        </mxCell>
        <mxCell id="cNPebkuIrYHYyCrAwYhM-29" value="Алгоритм&lt;br&gt;перехода к&lt;br&gt;действиям" style="text;html=1;align=center;verticalAlign=middle;resizable=0;points=[];autosize=1;strokeColor=none;fillColor=none;fontSize=20;" vertex="1" parent="1">
          <mxGeometry x="1530" y="2470" width="120" height="90" as="geometry" />
        </mxCell>
        <mxCell id="cNPebkuIrYHYyCrAwYhM-40" style="edgeStyle=orthogonalEdgeStyle;rounded=0;orthogonalLoop=1;jettySize=auto;html=1;exitX=1;exitY=0.5;exitDx=0;exitDy=0;" edge="1" parent="1" source="cNPebkuIrYHYyCrAwYhM-32">
          <mxGeometry relative="1" as="geometry">
            <mxPoint x="2840" y="2797" as="targetPoint" />
          </mxGeometry>
        </mxCell>
        <mxCell id="cNPebkuIrYHYyCrAwYhM-32" value="Вычисление количества топлива" style="rounded=0;whiteSpace=wrap;html=1;fontSize=20;" vertex="1" parent="1">
          <mxGeometry x="2225" y="2743" width="160" height="110" as="geometry" />
        </mxCell>
        <mxCell id="cNPebkuIrYHYyCrAwYhM-33" value="А.0.1.1" style="text;html=1;align=center;verticalAlign=middle;resizable=0;points=[];autosize=1;strokeColor=none;fillColor=none;fontSize=20;" vertex="1" parent="1">
          <mxGeometry x="2220" y="2819" width="90" height="40" as="geometry" />
        </mxCell>
        <mxCell id="cNPebkuIrYHYyCrAwYhM-36" value="Информация &lt;br&gt;о заезде" style="text;html=1;align=center;verticalAlign=middle;resizable=0;points=[];autosize=1;strokeColor=none;fillColor=none;" vertex="1" parent="1">
          <mxGeometry x="2125" y="2760" width="100" height="40" as="geometry" />
        </mxCell>
        <mxCell id="cNPebkuIrYHYyCrAwYhM-37" style="edgeStyle=none;rounded=0;orthogonalLoop=1;jettySize=auto;html=1;exitX=0.5;exitY=0;exitDx=0;exitDy=0;fontSize=20;startArrow=classic;startFill=1;endArrow=none;endFill=0;" edge="1" parent="1" source="cNPebkuIrYHYyCrAwYhM-32">
          <mxGeometry relative="1" as="geometry">
            <mxPoint x="2307.46" y="2550" as="targetPoint" />
            <mxPoint x="2307.46" y="2680" as="sourcePoint" />
          </mxGeometry>
        </mxCell>
        <mxCell id="cNPebkuIrYHYyCrAwYhM-38" value="Алгоритм&lt;br&gt;расчета" style="text;html=1;align=center;verticalAlign=middle;resizable=0;points=[];autosize=1;strokeColor=none;fillColor=none;fontSize=20;" vertex="1" parent="1">
          <mxGeometry x="2260" y="2500" width="100" height="50" as="geometry" />
        </mxCell>
        <mxCell id="cNPebkuIrYHYyCrAwYhM-39" value="Необходимое&lt;br&gt;топливо" style="text;html=1;align=center;verticalAlign=middle;resizable=0;points=[];autosize=1;strokeColor=none;fillColor=none;fontSize=20;" vertex="1" parent="1">
          <mxGeometry x="2720" y="2739.17" width="140" height="50" as="geometry" />
        </mxCell>
        <mxCell id="cNPebkuIrYHYyCrAwYhM-42" value="А.0.1" style="text;html=1;align=center;verticalAlign=middle;resizable=0;points=[];autosize=1;strokeColor=none;fillColor=none;fontSize=20;" vertex="1" parent="1">
          <mxGeometry x="1855" y="2859" width="70" height="40" as="geometry" />
        </mxCell>
        <mxCell id="cNPebkuIrYHYyCrAwYhM-43" value="" style="rounded=0;whiteSpace=wrap;html=1;dashed=1;dashPattern=8 8;" vertex="1" parent="1">
          <mxGeometry x="1808.9999999999998" y="3000" width="605" height="227" as="geometry" />
        </mxCell>
        <mxCell id="cNPebkuIrYHYyCrAwYhM-44" style="edgeStyle=orthogonalEdgeStyle;rounded=0;orthogonalLoop=1;jettySize=auto;html=1;exitX=1;exitY=0.5;exitDx=0;exitDy=0;entryX=0;entryY=0.5;entryDx=0;entryDy=0;" edge="1" parent="1" source="cNPebkuIrYHYyCrAwYhM-45" target="cNPebkuIrYHYyCrAwYhM-53">
          <mxGeometry relative="1" as="geometry" />
        </mxCell>
        <mxCell id="cNPebkuIrYHYyCrAwYhM-59" style="edgeStyle=orthogonalEdgeStyle;rounded=0;orthogonalLoop=1;jettySize=auto;html=1;exitX=0.5;exitY=0;exitDx=0;exitDy=0;endArrow=oval;endFill=1;startArrow=classic;startFill=1;" edge="1" parent="1" source="cNPebkuIrYHYyCrAwYhM-45">
          <mxGeometry relative="1" as="geometry">
            <mxPoint x="1791" y="2656" as="targetPoint" />
            <Array as="points">
              <mxPoint x="2042" y="2980" />
              <mxPoint x="1791" y="2980" />
            </Array>
          </mxGeometry>
        </mxCell>
        <mxCell id="cNPebkuIrYHYyCrAwYhM-45" value="Опрос" style="rounded=0;whiteSpace=wrap;html=1;fontSize=20;" vertex="1" parent="1">
          <mxGeometry x="1961.7200000000003" y="3072" width="160" height="110" as="geometry" />
        </mxCell>
        <mxCell id="cNPebkuIrYHYyCrAwYhM-46" value="А.0.2.0" style="text;html=1;align=center;verticalAlign=middle;resizable=0;points=[];autosize=1;strokeColor=none;fillColor=none;fontSize=20;" vertex="1" parent="1">
          <mxGeometry x="1958.7200000000003" y="3145" width="90" height="40" as="geometry" />
        </mxCell>
        <mxCell id="cNPebkuIrYHYyCrAwYhM-64" style="edgeStyle=orthogonalEdgeStyle;rounded=0;orthogonalLoop=1;jettySize=auto;html=1;exitX=1;exitY=0.5;exitDx=0;exitDy=0;" edge="1" parent="1" source="cNPebkuIrYHYyCrAwYhM-53">
          <mxGeometry relative="1" as="geometry">
            <mxPoint x="2830" y="3128" as="targetPoint" />
          </mxGeometry>
        </mxCell>
        <mxCell id="cNPebkuIrYHYyCrAwYhM-53" value="Советы" style="rounded=0;whiteSpace=wrap;html=1;fontSize=20;" vertex="1" parent="1">
          <mxGeometry x="2210" y="3072" width="160" height="110" as="geometry" />
        </mxCell>
        <mxCell id="cNPebkuIrYHYyCrAwYhM-54" value="А.0.2.1" style="text;html=1;align=center;verticalAlign=middle;resizable=0;points=[];autosize=1;strokeColor=none;fillColor=none;fontSize=20;" vertex="1" parent="1">
          <mxGeometry x="2205" y="3148" width="90" height="40" as="geometry" />
        </mxCell>
        <mxCell id="cNPebkuIrYHYyCrAwYhM-55" value="Результат&lt;br&gt;опроса" style="text;html=1;align=center;verticalAlign=middle;resizable=0;points=[];autosize=1;strokeColor=none;fillColor=none;" vertex="1" parent="1">
          <mxGeometry x="2120" y="3089" width="80" height="40" as="geometry" />
        </mxCell>
        <mxCell id="cNPebkuIrYHYyCrAwYhM-57" style="rounded=0;orthogonalLoop=1;jettySize=auto;html=1;exitX=0.006;exitY=0.1;exitDx=0;exitDy=0;fontSize=50;startArrow=classic;startFill=1;endArrow=none;endFill=0;edgeStyle=orthogonalEdgeStyle;exitPerimeter=0;" edge="1" parent="1">
          <mxGeometry relative="1" as="geometry">
            <mxPoint x="1861.2799999999997" y="3116" as="targetPoint" />
            <mxPoint x="1961.7200000000003" y="3116" as="sourcePoint" />
            <Array as="points">
              <mxPoint x="1871.2799999999997" y="3116" />
            </Array>
          </mxGeometry>
        </mxCell>
        <mxCell id="cNPebkuIrYHYyCrAwYhM-58" value="Ответы&lt;br&gt;пользователя" style="text;html=1;align=center;verticalAlign=middle;resizable=0;points=[];autosize=1;strokeColor=none;fillColor=none;" vertex="1" parent="1">
          <mxGeometry x="1861.2799999999997" y="3082" width="100" height="40" as="geometry" />
        </mxCell>
        <mxCell id="cNPebkuIrYHYyCrAwYhM-60" value="Советы по настройке" style="text;html=1;align=center;verticalAlign=middle;resizable=0;points=[];autosize=1;strokeColor=none;fillColor=none;" vertex="1" parent="1">
          <mxGeometry x="1900" y="3020" width="140" height="30" as="geometry" />
        </mxCell>
        <mxCell id="cNPebkuIrYHYyCrAwYhM-61" style="edgeStyle=orthogonalEdgeStyle;rounded=0;orthogonalLoop=1;jettySize=auto;html=1;fontSize=20;startArrow=classic;startFill=1;endArrow=none;endFill=0;exitX=0.5;exitY=0;exitDx=0;exitDy=0;" edge="1" parent="1" source="cNPebkuIrYHYyCrAwYhM-53">
          <mxGeometry relative="1" as="geometry">
            <mxPoint x="2499" y="2583" as="targetPoint" />
            <mxPoint x="2499" y="2853" as="sourcePoint" />
            <Array as="points">
              <mxPoint x="2290" y="2960" />
              <mxPoint x="2500" y="2960" />
              <mxPoint x="2500" y="2583" />
            </Array>
          </mxGeometry>
        </mxCell>
        <mxCell id="cNPebkuIrYHYyCrAwYhM-62" value="Алгоритм&lt;br&gt;определения&lt;br&gt;советов" style="text;html=1;align=center;verticalAlign=middle;resizable=0;points=[];autosize=1;strokeColor=none;fillColor=none;fontSize=20;" vertex="1" parent="1">
          <mxGeometry x="2424" y="2493" width="150" height="90" as="geometry" />
        </mxCell>
        <mxCell id="cNPebkuIrYHYyCrAwYhM-63" value="Советы по&lt;br&gt;настройке" style="text;html=1;align=center;verticalAlign=middle;resizable=0;points=[];autosize=1;strokeColor=none;fillColor=none;fontSize=20;" vertex="1" parent="1">
          <mxGeometry x="2730" y="3050" width="110" height="50" as="geometry" />
        </mxCell>
        <mxCell id="cNPebkuIrYHYyCrAwYhM-65" value="А.0.2" style="text;html=1;align=center;verticalAlign=middle;resizable=0;points=[];autosize=1;strokeColor=none;fillColor=none;fontSize=20;" vertex="1" parent="1">
          <mxGeometry x="1816.28" y="3185" width="70" height="40" as="geometry" />
        </mxCell>
        <mxCell id="cNPebkuIrYHYyCrAwYhM-66" style="edgeStyle=orthogonalEdgeStyle;rounded=0;orthogonalLoop=1;jettySize=auto;html=1;exitX=1;exitY=0.5;exitDx=0;exitDy=0;" edge="1" parent="1" source="cNPebkuIrYHYyCrAwYhM-68">
          <mxGeometry relative="1" as="geometry">
            <mxPoint x="2842" y="3337.6666666666665" as="targetPoint" />
          </mxGeometry>
        </mxCell>
        <mxCell id="cNPebkuIrYHYyCrAwYhM-67" style="edgeStyle=orthogonalEdgeStyle;rounded=0;orthogonalLoop=1;jettySize=auto;html=1;exitX=0;exitY=0.5;exitDx=0;exitDy=0;endArrow=none;endFill=0;startArrow=classic;startFill=1;" edge="1" parent="1" source="cNPebkuIrYHYyCrAwYhM-68">
          <mxGeometry relative="1" as="geometry">
            <mxPoint x="2362" y="3336.8571428571427" as="targetPoint" />
          </mxGeometry>
        </mxCell>
        <mxCell id="cNPebkuIrYHYyCrAwYhM-72" style="edgeStyle=orthogonalEdgeStyle;rounded=0;orthogonalLoop=1;jettySize=auto;html=1;exitX=0.25;exitY=0;exitDx=0;exitDy=0;startArrow=classic;startFill=1;endArrow=oval;endFill=1;" edge="1" parent="1" source="cNPebkuIrYHYyCrAwYhM-68">
          <mxGeometry relative="1" as="geometry">
            <mxPoint x="2040" y="2980" as="targetPoint" />
            <Array as="points">
              <mxPoint x="2501" y="3240" />
              <mxPoint x="2470" y="3240" />
              <mxPoint x="2470" y="2980" />
            </Array>
          </mxGeometry>
        </mxCell>
        <mxCell id="cNPebkuIrYHYyCrAwYhM-68" value="Информация о&lt;br&gt;турнирах" style="rounded=0;whiteSpace=wrap;html=1;fontSize=20;" vertex="1" parent="1">
          <mxGeometry x="2461" y="3282" width="160" height="110" as="geometry" />
        </mxCell>
        <mxCell id="cNPebkuIrYHYyCrAwYhM-69" value="Информация о &lt;br&gt;результатах турниров" style="text;html=1;align=center;verticalAlign=middle;resizable=0;points=[];autosize=1;strokeColor=none;fillColor=none;fontSize=20;" vertex="1" parent="1">
          <mxGeometry x="2657" y="3277" width="220" height="60" as="geometry" />
        </mxCell>
        <mxCell id="cNPebkuIrYHYyCrAwYhM-70" value="А.0.3" style="text;html=1;align=center;verticalAlign=middle;resizable=0;points=[];autosize=1;strokeColor=none;fillColor=none;fontSize=20;" vertex="1" parent="1">
          <mxGeometry x="2456" y="3357" width="70" height="40" as="geometry" />
        </mxCell>
        <mxCell id="cNPebkuIrYHYyCrAwYhM-71" value="Информация о турнирах" style="text;html=1;align=center;verticalAlign=middle;resizable=0;points=[];autosize=1;strokeColor=none;fillColor=none;" vertex="1" parent="1">
          <mxGeometry x="2301" y="3307" width="160" height="30" as="geometry" />
        </mxCell>
        <mxCell id="cNPebkuIrYHYyCrAwYhM-73" value="Турниры" style="text;html=1;align=center;verticalAlign=middle;resizable=0;points=[];autosize=1;strokeColor=none;fillColor=none;" vertex="1" parent="1">
          <mxGeometry x="2434" y="3240" width="70" height="30" as="geometry" />
        </mxCell>
        <mxCell id="cNPebkuIrYHYyCrAwYhM-77" style="edgeStyle=orthogonalEdgeStyle;rounded=0;orthogonalLoop=1;jettySize=auto;html=1;fontSize=20;startArrow=classic;startFill=1;endArrow=none;endFill=0;exitX=0.5;exitY=0;exitDx=0;exitDy=0;" edge="1" parent="1">
          <mxGeometry relative="1" as="geometry">
            <mxPoint x="2700" y="2580" as="targetPoint" />
            <mxPoint x="2571" y="3282" as="sourcePoint" />
            <Array as="points">
              <mxPoint x="2571" y="2640" />
              <mxPoint x="2700" y="2640" />
            </Array>
          </mxGeometry>
        </mxCell>
        <mxCell id="cNPebkuIrYHYyCrAwYhM-78" value="Алгоритм&lt;br&gt;сбора информации" style="text;html=1;align=center;verticalAlign=middle;resizable=0;points=[];autosize=1;strokeColor=none;fillColor=none;fontSize=20;" vertex="1" parent="1">
          <mxGeometry x="2600" y="2508" width="200" height="60" as="geometry" />
        </mxCell>
        <mxCell id="cNPebkuIrYHYyCrAwYhM-79" value="Вычислительная&lt;br&gt;машина" style="text;html=1;align=center;verticalAlign=middle;resizable=0;points=[];autosize=1;strokeColor=none;fillColor=none;fontSize=16;" vertex="1" parent="1">
          <mxGeometry x="1948.72" y="3530" width="140" height="40" as="geometry" />
        </mxCell>
        <mxCell id="cNPebkuIrYHYyCrAwYhM-80" style="edgeStyle=orthogonalEdgeStyle;rounded=0;orthogonalLoop=1;jettySize=auto;html=1;fontSize=20;startArrow=classic;startFill=1;endArrow=none;endFill=0;exitX=0.5;exitY=1;exitDx=0;exitDy=0;" edge="1" parent="1" source="cNPebkuIrYHYyCrAwYhM-24">
          <mxGeometry relative="1" as="geometry">
            <mxPoint x="1650" y="3530" as="targetPoint" />
            <mxPoint x="1501" y="3872" as="sourcePoint" />
            <Array as="points">
              <mxPoint x="1650" y="3530" />
            </Array>
          </mxGeometry>
        </mxCell>
        <mxCell id="cNPebkuIrYHYyCrAwYhM-82" style="edgeStyle=orthogonalEdgeStyle;rounded=0;orthogonalLoop=1;jettySize=auto;html=1;exitX=0.75;exitY=1;exitDx=0;exitDy=0;fontSize=16;startArrow=classic;startFill=1;endArrow=oval;endFill=1;" edge="1" parent="1">
          <mxGeometry relative="1" as="geometry">
            <mxPoint x="2110" y="2280" as="targetPoint" />
            <Array as="points">
              <mxPoint x="1881" y="2280" />
            </Array>
            <mxPoint x="1881.2" y="1940" as="sourcePoint" />
          </mxGeometry>
        </mxCell>
        <mxCell id="cNPebkuIrYHYyCrAwYhM-83" style="edgeStyle=orthogonalEdgeStyle;rounded=0;orthogonalLoop=1;jettySize=auto;html=1;fontSize=16;startArrow=classic;startFill=1;endArrow=oval;endFill=1;" edge="1" parent="1">
          <mxGeometry relative="1" as="geometry">
            <mxPoint x="1650" y="2913" as="targetPoint" />
            <Array as="points">
              <mxPoint x="2027" y="2913" />
            </Array>
            <mxPoint x="2027" y="2853" as="sourcePoint" />
          </mxGeometry>
        </mxCell>
        <mxCell id="cNPebkuIrYHYyCrAwYhM-84" value="Пользоваетль" style="text;html=1;align=center;verticalAlign=middle;resizable=0;points=[];autosize=1;strokeColor=none;fillColor=none;fontSize=16;" vertex="1" parent="1">
          <mxGeometry x="1756.28" y="2380" width="120" height="20" as="geometry" />
        </mxCell>
        <mxCell id="cNPebkuIrYHYyCrAwYhM-85" style="edgeStyle=orthogonalEdgeStyle;rounded=0;orthogonalLoop=1;jettySize=auto;html=1;fontSize=16;startArrow=classic;startFill=1;endArrow=oval;endFill=1;exitX=0.75;exitY=1;exitDx=0;exitDy=0;" edge="1" parent="1">
          <mxGeometry relative="1" as="geometry">
            <mxPoint x="2027" y="2913" as="targetPoint" />
            <Array as="points">
              <mxPoint x="2259" y="2920" />
              <mxPoint x="2027" y="2920" />
            </Array>
            <mxPoint x="2258.9900000000002" y="2853" as="sourcePoint" />
          </mxGeometry>
        </mxCell>
        <mxCell id="cNPebkuIrYHYyCrAwYhM-86" style="edgeStyle=orthogonalEdgeStyle;rounded=0;orthogonalLoop=1;jettySize=auto;html=1;fontSize=20;startArrow=classic;startFill=1;endArrow=none;endFill=0;exitX=0.5;exitY=1;exitDx=0;exitDy=0;" edge="1" parent="1">
          <mxGeometry relative="1" as="geometry">
            <mxPoint x="2010" y="3510" as="targetPoint" />
            <mxPoint x="1704" y="2710" as="sourcePoint" />
            <Array as="points">
              <mxPoint x="1704" y="3370" />
              <mxPoint x="2010" y="3370" />
            </Array>
          </mxGeometry>
        </mxCell>
        <mxCell id="cNPebkuIrYHYyCrAwYhM-89" style="edgeStyle=orthogonalEdgeStyle;rounded=0;orthogonalLoop=1;jettySize=auto;html=1;fontSize=16;startArrow=classic;startFill=1;endArrow=oval;endFill=1;exitX=0.75;exitY=1;exitDx=0;exitDy=0;" edge="1" parent="1">
          <mxGeometry relative="1" as="geometry">
            <mxPoint x="1650" y="3440" as="targetPoint" />
            <Array as="points">
              <mxPoint x="2496" y="3440" />
              <mxPoint x="2049" y="3440" />
            </Array>
            <mxPoint x="2495.7200000000003" y="3392" as="sourcePoint" />
          </mxGeometry>
        </mxCell>
        <mxCell id="cNPebkuIrYHYyCrAwYhM-90" style="edgeStyle=orthogonalEdgeStyle;rounded=0;orthogonalLoop=1;jettySize=auto;html=1;fontSize=16;startArrow=classic;startFill=1;endArrow=oval;endFill=1;exitX=0.75;exitY=1;exitDx=0;exitDy=0;" edge="1" parent="1">
          <mxGeometry relative="1" as="geometry">
            <mxPoint x="2010" y="3479" as="targetPoint" />
            <Array as="points">
              <mxPoint x="2585.96" y="3479" />
            </Array>
            <mxPoint x="2585.96" y="3392" as="sourcePoint" />
          </mxGeometry>
        </mxCell>
        <mxCell id="cNPebkuIrYHYyCrAwYhM-91" style="edgeStyle=orthogonalEdgeStyle;rounded=0;orthogonalLoop=1;jettySize=auto;html=1;fontSize=16;startArrow=classic;startFill=1;endArrow=oval;endFill=1;" edge="1" parent="1">
          <mxGeometry relative="1" as="geometry">
            <mxPoint x="1704" y="2930" as="targetPoint" />
            <Array as="points">
              <mxPoint x="2100" y="2930" />
              <mxPoint x="1723" y="2930" />
            </Array>
            <mxPoint x="2099.78" y="2853" as="sourcePoint" />
          </mxGeometry>
        </mxCell>
        <mxCell id="cNPebkuIrYHYyCrAwYhM-92" style="edgeStyle=orthogonalEdgeStyle;rounded=0;orthogonalLoop=1;jettySize=auto;html=1;fontSize=16;startArrow=classic;startFill=1;endArrow=oval;endFill=1;exitX=0.75;exitY=1;exitDx=0;exitDy=0;" edge="1" parent="1">
          <mxGeometry relative="1" as="geometry">
            <mxPoint x="2100" y="2930" as="targetPoint" />
            <Array as="points">
              <mxPoint x="2357" y="2940" />
              <mxPoint x="2100" y="2940" />
            </Array>
            <mxPoint x="2356.9900000000002" y="2853" as="sourcePoint" />
          </mxGeometry>
        </mxCell>
        <mxCell id="cNPebkuIrYHYyCrAwYhM-95" style="edgeStyle=orthogonalEdgeStyle;rounded=0;orthogonalLoop=1;jettySize=auto;html=1;fontSize=16;startArrow=classic;startFill=1;endArrow=oval;endFill=1;" edge="1" parent="1">
          <mxGeometry relative="1" as="geometry">
            <mxPoint x="1650" y="3243" as="targetPoint" />
            <Array as="points">
              <mxPoint x="2027" y="3243" />
            </Array>
            <mxPoint x="2027" y="3183" as="sourcePoint" />
          </mxGeometry>
        </mxCell>
        <mxCell id="cNPebkuIrYHYyCrAwYhM-96" style="edgeStyle=orthogonalEdgeStyle;rounded=0;orthogonalLoop=1;jettySize=auto;html=1;fontSize=16;startArrow=classic;startFill=1;endArrow=oval;endFill=1;exitX=0.75;exitY=1;exitDx=0;exitDy=0;" edge="1" parent="1">
          <mxGeometry relative="1" as="geometry">
            <mxPoint x="2027" y="3243" as="targetPoint" />
            <Array as="points">
              <mxPoint x="2259" y="3250" />
              <mxPoint x="2027" y="3250" />
            </Array>
            <mxPoint x="2258.9900000000002" y="3183" as="sourcePoint" />
          </mxGeometry>
        </mxCell>
        <mxCell id="cNPebkuIrYHYyCrAwYhM-97" style="edgeStyle=orthogonalEdgeStyle;rounded=0;orthogonalLoop=1;jettySize=auto;html=1;fontSize=16;startArrow=classic;startFill=1;endArrow=oval;endFill=1;" edge="1" parent="1">
          <mxGeometry relative="1" as="geometry">
            <mxPoint x="1704" y="3260" as="targetPoint" />
            <Array as="points">
              <mxPoint x="2100" y="3260" />
              <mxPoint x="1723" y="3260" />
            </Array>
            <mxPoint x="2099.78" y="3183" as="sourcePoint" />
          </mxGeometry>
        </mxCell>
        <mxCell id="cNPebkuIrYHYyCrAwYhM-98" style="edgeStyle=orthogonalEdgeStyle;rounded=0;orthogonalLoop=1;jettySize=auto;html=1;fontSize=16;startArrow=classic;startFill=1;endArrow=oval;endFill=1;exitX=0.75;exitY=1;exitDx=0;exitDy=0;" edge="1" parent="1">
          <mxGeometry relative="1" as="geometry">
            <mxPoint x="2100" y="3260" as="targetPoint" />
            <Array as="points">
              <mxPoint x="2357" y="3270" />
              <mxPoint x="2100" y="3270" />
            </Array>
            <mxPoint x="2356.9900000000002" y="3183" as="sourcePoint" />
          </mxGeometry>
        </mxCell>
      </root>
    </mxGraphModel>
  </diagram>
</mxfile>
